<svg width="35" height="35" viewBox="0 0 35 35" fill="none" xmlns="http://www.w3.org/2000/svg">
<g clip-path="url(#clip0_2_181)">
<path d="M18.2292 11.6667H16.0417V20.4167L22.9688 24.5729L24.0625 22.7792L18.2292 19.3229V11.6667ZM25.2832 2.63958L32.0017 8.24687L30.135 10.4854L23.4121 4.88104L25.2832 2.63958ZM9.7169 2.63958L11.5865 4.87958L4.86648 10.4854L2.99982 8.24541L9.7169 2.63958ZM17.5 5.83333C10.2521 5.83333 4.37503 11.7104 4.37503 18.9583C4.37503 26.2062 10.2521 32.0833 17.5 32.0833C24.7479 32.0833 30.625 26.2062 30.625 18.9583C30.625 11.7104 24.7479 5.83333 17.5 5.83333ZM17.5 29.1667C11.8709 29.1667 7.29169 24.5875 7.29169 18.9583C7.29169 13.3292 11.8709 8.75 17.5 8.75C23.1292 8.75 27.7084 13.3292 27.7084 18.9583C27.7084 24.5875 23.1292 29.1667 17.5 29.1667Z" fill="#A5C0B5"/>
</g>
<defs>
<clipPath id="clip0_2_181">
<rect width="35" height="35" fill="white"/>
</clipPath>
</defs>
</svg>
