<svg width="170" height="12" viewBox="0 0 170 12" fill="none" xmlns="http://www.w3.org/2000/svg">
<path d="M79.0515 6.19934H7.66946V6.55697H79.0515V6.19934Z" fill="#6F4B28"/>
<path d="M7.37993 7.66944C8.01915 7.66944 8.53732 7.08124 8.53732 6.35565C8.53732 5.63006 8.01915 5.04185 7.37993 5.04185C6.74072 5.04185 6.22252 5.63006 6.22252 6.35565C6.22252 7.08124 6.74072 7.66944 7.37993 7.66944Z" fill="#6F4B28"/>
<path d="M65.2571 7.66944C65.8964 7.66944 66.4146 7.08124 66.4146 6.35565C66.4146 5.63006 65.8964 5.04185 65.2571 5.04185C64.6179 5.04185 64.0998 5.63006 64.0998 6.35565C64.0998 7.08124 64.6179 7.66944 65.2571 7.66944Z" fill="#6F4B28"/>
<path d="M91.0452 6.55745L162.427 6.55745V6.19982L91.0452 6.19982V6.55745Z" fill="#6F4B28"/>
<path d="M162.716 7.66944C163.355 7.66944 163.873 7.08124 163.873 6.35565C163.873 5.63006 163.355 5.04185 162.716 5.04185C162.077 5.04185 161.559 5.63006 161.559 6.35565C161.559 7.08124 162.077 7.66944 162.716 7.66944Z" fill="#6F4B28"/>
<path d="M104.839 7.66944C105.478 7.66944 105.996 7.08124 105.996 6.35565C105.996 5.63006 105.478 5.04185 104.839 5.04185C104.2 5.04185 103.681 5.63006 103.681 6.35565C103.681 7.08124 104.2 7.66944 104.839 7.66944Z" fill="#6F4B28"/>
<path d="M6.2384 6.329C6.2384 7.23826 4.84221 7.97561 3.1192 7.97561C1.39619 7.97561 0 6.329 0 6.329C0 6.329 1.39619 4.68239 3.1192 4.68239C4.84221 4.68147 6.2384 5.41881 6.2384 6.329Z" fill="#6F4B28"/>
<path d="M163.762 6.26187C163.762 7.17114 165.158 7.90848 166.881 7.90848C168.603 7.90848 170 6.26187 170 6.26187C170 6.26187 168.604 4.61527 166.881 4.61527C165.158 4.61435 163.762 5.35169 163.762 6.26187Z" fill="#6F4B28"/>
<path d="M79.871 6.48528C79.871 7.88458 78.8778 9.0191 77.6522 9.0191C76.4266 9.0191 75.4334 7.88458 75.4334 6.48528C75.4334 5.08599 76.4266 3.95148 77.6522 3.95148C78.8778 3.95148 79.871 5.08599 79.871 6.48528Z" fill="#6F4B28"/>
<path d="M93.4401 6.55976C93.4401 7.95906 92.4469 9.09357 91.2213 9.09357C89.9957 9.09357 89.0025 7.95906 89.0025 6.55976C89.0025 5.16047 89.9957 4.02596 91.2213 4.02596C92.4469 4.02596 93.4401 5.16047 93.4401 6.55976Z" fill="#6F4B28"/>
<path d="M84.4372 11.404C81.5655 11.404 79.2284 8.84626 79.2284 5.70199C79.2284 2.55771 81.5655 0 84.4372 0C87.3088 0 89.6459 2.55771 89.6459 5.70199C89.6467 8.84626 87.3096 11.404 84.4372 11.404ZM84.4372 1.79002C82.4159 1.79002 80.7714 3.54511 80.7714 5.7029C80.7714 7.86068 82.4159 9.61579 84.4372 9.61579C86.4584 9.61579 88.1029 7.86068 88.1029 5.7029C88.1029 3.54511 86.4584 1.79002 84.4372 1.79002Z" fill="#6F4B28"/>
</svg>
