<svg width="35" height="35" viewBox="0 0 35 35" fill="none" xmlns="http://www.w3.org/2000/svg">
<g clip-path="url(#clip0_2_187)">
<path d="M29.8958 4.375L29.6625 4.41875L21.875 7.4375L13.125 4.375L4.9 7.14583C4.59375 7.24792 4.375 7.51042 4.375 7.84583V29.8958C4.375 30.3042 4.69583 30.625 5.10417 30.625L5.3375 30.5812L13.125 27.5625L21.875 30.625L30.1 27.8542C30.4062 27.7521 30.625 27.4896 30.625 27.1542V5.10417C30.625 4.69583 30.3042 4.375 29.8958 4.375ZM14.5833 7.97708L20.4167 10.0187V27.0229L14.5833 24.9812V7.97708ZM7.29167 9.42083L11.6667 7.94792V25.0104L7.29167 26.7021V9.42083ZM27.7083 25.5792L23.3333 27.0521V10.0042L27.7083 8.3125V25.5792Z" fill="#A5C0B5"/>
</g>
<defs>
<clipPath id="clip0_2_187">
<rect width="35" height="35" fill="white"/>
</clipPath>
</defs>
</svg>
