<svg width="118" height="123" viewBox="0 0 118 123" fill="none" xmlns="http://www.w3.org/2000/svg">
<path d="M108.83 68.322C108.524 97.7226 84.524 121.548 55.0522 121.548C25.3912 121.548 1.26046 97.4177 1.26046 67.7567C1.26046 54.7964 5.86826 42.8934 13.5305 33.5959C13.2299 33.3002 12.9306 33.0038 12.63 32.7081C4.74471 42.2356 0 54.452 0 67.756C0 98.1121 24.6961 122.808 55.0522 122.808C85.2185 122.808 109.785 98.417 110.09 68.3213H108.83V68.322Z" fill="#A47B06"/>
<path d="M106.793 68.322C106.487 96.5997 83.4005 119.512 55.0522 119.512C26.5141 119.512 3.29722 96.2941 3.29722 67.7567C3.29722 55.3512 7.68836 43.9548 14.9921 35.03C14.8411 34.8818 14.69 34.7343 14.5397 34.5861C7.12518 43.626 2.66699 55.179 2.66699 67.756C2.66699 96.6421 26.1668 120.141 55.0522 120.141C83.7484 120.141 107.118 96.9463 107.423 68.3213H106.793V68.322Z" fill="#CDA33E"/>
<path d="M47.6299 11.9176C48.2813 11.2705 49.1903 11.1018 50.16 11.1251C51.124 11.1653 52.1544 11.3721 53.0613 11.5012C55.59 11.8725 58.0728 12.1145 60.5789 12.0101C65.0187 12.075 66.855 9.18217 69.2743 6.91321C70.5249 5.80307 71.5885 4.52921 71.9364 2.99845C72.393 1.4063 69.5637 1.38371 68.1656 1.21574C65.8543 0.979321 63.339 0.305337 60.9134 0.0731471C58.4793 -0.144222 56.1616 0.059737 54.4078 1.55521C52.3619 2.97304 50.5637 4.59555 48.3688 5.93717C47.0286 6.88286 46.8359 8.36916 46.7795 9.67619C46.7251 10.5859 46.5677 11.49 45.8881 12.2507C45.0193 12.9417 44.2409 15.0554 43.2543 15.2382C38.5823 16.3511 34.0733 17.8946 29.9369 19.8572C25.7928 21.8319 22.0813 24.1842 18.7226 26.9443C18.2117 27.5287 16.3394 28.473 17.0147 29.2641C17.2843 29.3925 17.7769 29.1766 18.3705 28.7644C18.6584 28.5478 19.0141 28.3283 19.3684 28.0608C19.7227 27.7919 20.096 27.4976 20.4997 27.2245C22.0538 26.0628 23.8555 24.9224 24.5768 24.5279C26.3905 23.4297 28.3066 22.4198 30.3173 21.4819C32.081 20.8538 33.7896 19.4959 35.7854 19.6166C37.4686 19.7133 38.9485 20.3597 39.3699 21.8114C39.6599 23.6379 39.6091 25.7784 40.041 27.6684C40.4729 29.564 41.3163 31.1738 43.3383 32.1012C45.0652 32.9297 47.0335 33.2127 48.8628 33.9785C50.0238 34.2763 52.2772 35.9941 52.6407 33.9615C53.1375 31.7984 54.031 29.5549 52.7726 27.4179C51.755 25.6493 50.9024 23.7882 49.6448 22.2575C48.39 20.726 46.711 19.5072 44.0955 19.1713C42.5619 18.884 41.0319 19.059 39.5301 19.3011C38.7559 19.4197 38.0734 19.0428 37.3345 18.8967C37.2237 18.8685 37.0564 18.8798 37.0395 18.7746C37.0212 18.6575 37.1934 18.6335 37.2978 18.594C41.3826 17.1627 45.6983 15.9608 50.2058 15.4569C52.2313 15.1175 54.3323 15.2163 56.1771 16.222C57.3875 16.6652 57.2174 17.7104 57.0297 18.5297C56.7008 20.0859 56.3522 21.6378 55.8497 23.1538C55.4029 24.5088 55.6436 25.7742 56.5604 26.9838C58.156 28.938 59.8971 30.8598 61.7349 32.6178C63.639 34.0935 65.603 30.533 65.9799 29.1716C67.0343 26.7679 66.9757 24.1538 65.8246 21.8538C64.6785 19.5637 62.4279 17.5833 59.2514 16.6009C58.2203 16.2453 57.3755 15.6531 56.3677 15.2805C56.3275 15.2657 56.2795 15.2255 56.2703 15.193C56.2435 15.0949 56.3515 15.1125 56.4136 15.1132C57.5145 15.085 59.5965 15.1365 62.0666 15.4216C64.5388 15.6976 67.402 16.1895 70.069 16.8995C72.7402 17.6102 75.2004 18.5163 76.9316 19.5749C78.6791 20.659 79.6502 21.8242 79.3185 23.0324C77.9161 24.6302 75.9189 24.7318 73.9717 25.1023C72.0197 25.4693 70.1494 26.0805 69.1466 28.5576C68.6081 30.4152 65.5014 33.9742 68.9596 34.9983C69.5672 35.1994 70.1699 35.3116 70.7719 35.3659C71.3796 35.4175 71.9745 35.4034 72.52 35.3525C73.6323 35.2537 74.7897 34.9707 75.8921 34.7752C78.1102 34.4083 79.6904 32.9177 80.5641 31.075C81.0073 30.1456 81.2868 29.106 81.3877 28.0481C81.483 27.0008 81.3997 25.94 81.147 24.9569C80.8753 23.7071 80.5683 22.4297 79.9212 21.1996C79.7073 20.7154 80.9057 21.496 81.0765 21.5736C84.9072 23.7896 88.6117 26.3028 91.8038 29.2789C92.3655 30.0079 92.8123 31.1534 92.8617 32.1774C92.9209 33.2 92.5617 34.1309 91.7169 34.4852C90.688 34.8564 89.6562 35.2544 88.8446 35.855C88.0294 36.4528 87.4345 37.2559 87.1868 38.3795C86.7838 39.5891 86.1776 40.7557 85.7661 41.9032C85.5502 42.4813 85.4189 43.0296 85.3046 43.6048C85.1966 44.1757 85.1634 44.7375 85.2495 45.2774C85.4761 45.6846 85.1938 47.4377 85.0025 48.6544C84.8649 49.315 84.7724 49.8527 84.8557 50.14C84.9538 50.4075 85.1493 50.538 85.7047 50.2141C87.0146 49.4484 88.5157 48.8598 89.6477 47.7637C91.2681 46.3664 92.8299 45.4327 94.0254 44.2689C94.6197 43.6817 95.1151 43.0254 95.4405 42.1665C95.7256 41.3429 95.823 40.333 95.631 38.9794C95.3882 37.908 95.0509 37.2108 94.8018 36.6328C94.6663 36.3476 94.5484 36.1006 94.4404 35.8741C94.3219 35.6546 94.2047 35.4633 94.108 35.258C93.9104 34.8501 93.7685 34.4153 93.6655 33.7576C93.5625 33.097 93.5074 32.2042 93.362 30.9445C93.9732 31.4314 94.5082 32.0419 95.0368 32.658C95.5604 33.2798 96.1109 33.8747 96.5555 34.5741C97.0192 35.2389 97.485 35.9073 97.948 36.5707C98.365 37.2658 98.7913 37.9363 99.2444 38.5686C99.5203 38.9038 99.6954 39.2673 99.8259 39.6195C99.9593 39.9695 100.047 40.3097 100.098 40.64C100.193 41.3048 100.164 41.9131 100.012 42.5314C99.6926 43.7798 99.08 44.9344 98.7271 46.1419C98.442 47.1145 98.3206 48.003 98.4335 48.7744C98.4787 49.1696 98.5979 49.521 98.7109 49.8993C98.8224 50.279 98.9748 50.6446 99.1597 51.0017C99.9473 52.3906 101.07 53.8303 102.208 55.3166C102.95 56.4924 103.565 57.81 104.314 59.045C104.984 60.3175 105.763 61.518 106.857 62.4877C108.015 63.6472 108.771 61.8412 109.158 60.7783C109.418 59.9766 109.717 59.1636 110.008 58.3315C110.306 57.4988 110.516 56.6568 110.715 55.7824C110.9 54.9101 111.043 54.011 111.063 53.0907C111.044 52.1746 110.92 51.2332 110.65 50.2783C110.526 49.7998 110.437 49.3128 110.289 48.8379C110.14 48.3629 109.988 47.8901 109.827 47.4271C109.666 46.9641 109.497 46.5096 109.313 46.0721C109.136 45.6331 108.934 45.2132 108.672 44.8278C107.679 43.2759 106.419 42.0994 104.463 41.9442C103.019 41.7205 101.314 41.7854 100.537 40.0401C100.279 39.5242 100.06 38.973 99.7716 38.4698L98.8986 36.951C98.3509 35.8924 97.6268 34.9721 96.9571 33.9679C96.8315 33.7618 96.6931 33.548 96.5358 33.3475C96.3685 33.1563 96.1984 32.9629 96.0297 32.7709C95.6931 32.3842 95.3734 31.9925 95.1589 31.5803C95.7616 31.6968 96.48 31.8146 97.1039 32.1054C97.4899 32.272 97.8273 32.5105 98.1618 32.7589C98.4963 33.0074 98.8231 33.272 99.1456 33.5444L100.106 34.3758C100.4 34.6793 100.695 34.982 100.999 35.2756C101.833 36.0011 102.801 36.6448 103.711 37.2842C104.182 37.5919 104.669 37.8749 105.166 38.1282C105.415 38.2546 105.666 38.3738 105.919 38.4839C106.164 38.5983 106.395 38.7112 106.636 38.8107C108.545 39.6011 110.55 39.8128 112.033 38.6441C112.423 38.3548 112.855 38.1311 113.333 38.0047C114.093 37.8544 115.802 37.0449 116.932 35.831C118.06 34.6292 118.594 32.9396 117.004 31.2628C115.296 29.6452 113.635 28.1603 111.721 27.0318C110.783 26.4616 109.885 25.9104 108.932 25.4841C107.974 25.0628 107.027 24.6979 106.1 24.3895C105.012 23.9753 104.186 23.9167 103.54 24.0028C102.897 24.0868 102.43 24.3253 102.014 24.6267C101.187 25.2343 100.543 26.077 99.2303 26.5879C97.4815 27.1469 97.4942 29.0538 97.0178 30.5662C96.8625 31.0659 96.7672 31.0976 96.1716 30.9635C95.7086 30.8167 95.2188 30.761 94.7686 30.6283C94.3 30.521 93.8659 30.3446 93.518 29.9113C89.6541 25.813 84.8374 22.4297 79.7779 19.7874C78.6177 19.3124 80.1548 19.2828 80.5719 19.155C81.8429 18.9913 83.2064 19.8869 84.5551 20.0104C87.1543 20.7232 88.75 20.3943 90.074 19.7105C91.4001 18.9969 92.429 17.7922 93.9217 16.7562C95.2986 15.9559 96.2083 14.8973 97.0827 13.7723C97.3255 13.4639 97.3982 13.1724 97.2824 12.8513C97.1653 12.521 96.8653 12.1823 96.3741 11.8068C93.3896 9.22945 90.081 10.1582 87.1466 9.85122C86.0456 9.65996 84.819 9.29086 83.754 9.2217C82.6997 9.17088 81.7808 9.36355 81.243 10.1864C80.1519 11.6692 80.3728 13.6135 80.2585 15.3751C80.2402 16.1309 80.291 16.8967 80.0948 17.6243C79.8322 18.6031 79.8259 18.6116 78.6169 18.7316C78.0905 18.7845 77.6218 18.7245 77.0911 18.469C75.2964 17.6285 73.4848 16.8529 71.5736 16.2488C64.6679 14.0786 57.1454 13.3136 49.9553 14.1379C47.4605 14.3376 45.9417 14.8324 45.5056 14.7173C45.0829 14.6044 45.682 13.9163 47.6299 11.9176ZM44.5966 22.7162L44.6128 22.7444C44.6926 22.7381 44.7582 22.7586 44.7907 22.8312C46.7294 23.6753 48.0886 25.4686 50.1699 26.0198L50.1607 26.0318C48.5502 24.9471 47.09 23.6965 45.4421 22.6294C44.9022 22.2716 44.3404 21.9724 43.7144 21.7409C42.4942 21.2984 41.5132 20.4719 40.3565 19.913C39.5766 19.5764 40.7799 19.4839 42.2197 19.6201C43.6573 19.7274 45.3108 20.0563 45.4435 20.2059C47.3081 20.7479 48.5022 21.8961 49.4563 23.2159C50.4112 24.5328 51.1332 26.0276 52.0739 27.3198C52.9321 28.6134 53.194 30.0002 52.7169 31.459C52.455 32.2635 52.2998 33.097 52.1502 33.9291C52.0415 34.5339 51.9137 34.6009 51.3132 34.3723C48.3455 32.7815 45.44 32.3207 43.4173 31.2345C41.4017 30.1449 40.0693 28.3685 40.1539 23.9795C40.3106 22.8249 39.9937 21.5419 39.4404 20.5559C41.5153 20.654 41.9331 23.2413 42.039 24.6986C42.1597 26.6775 42.8887 28.4461 43.6128 30.2578C43.6438 30.3347 43.6403 30.4646 43.7871 30.437C43.2606 28.6141 42.4991 26.861 42.497 24.9372C42.5161 23.7868 42.2606 22.6682 41.8266 21.6025C42.4758 21.7867 43.0623 22.3612 43.6403 22.7388C45.0603 23.8334 46.5543 24.9732 46.9234 26.6797C47.5508 28.154 47.4513 29.8315 47.7534 31.2839C47.9764 29.5866 47.6624 27.5971 47.0095 25.9048L47.006 25.9146C47.3123 25.8836 47.4005 26.1405 47.5508 26.2894C48.5777 27.2972 49.6921 28.2111 50.8304 29.1025C50.9448 29.1568 51.2581 29.509 51.3449 29.3446C49.0745 27.324 46.9517 25.031 44.7984 22.8192L44.5931 22.7367L44.5966 22.7162ZM89.1657 12.4787C89.0394 12.4286 88.9977 12.5394 88.9674 12.6086C88.4748 13.6693 87.7507 14.6192 86.9518 15.5099C86.0477 16.469 84.6235 17.1338 83.1909 17.4937C83.79 15.9813 83.8486 14.3489 83.8246 12.6841C83.7795 12.5239 83.8423 12.1498 83.5889 12.1068C83.3758 12.0891 83.5127 12.3333 83.5148 12.4625C83.4146 14.586 83.5776 17.7541 80.7412 18.354C80.4907 18.4225 80.4053 18.3131 80.4773 18.1275C81.1153 15.8056 80.2529 13.1379 81.3355 10.9162C82.0073 9.40025 83.8317 9.56186 85.8614 10.2126C86.7175 10.4476 87.5594 10.4758 88.4204 10.4687C89.2906 10.4843 90.165 10.4313 91.0401 10.4285C92.7678 10.377 94.6006 10.72 96.2831 12.1618C96.9063 12.6714 97.0121 12.9946 96.7101 13.4237C95.4404 15.6941 92.2336 16.5706 90.5003 18.5192C90.0592 18.9842 89.5016 19.2807 88.8749 19.4571C88.2489 19.6575 87.5524 19.738 86.8247 19.7309C86.0971 19.726 85.3384 19.6208 84.5854 19.4811C83.8331 19.3646 83.0857 19.191 82.3814 18.9878C82.1337 18.9814 82.0864 18.8022 82.3157 18.7485C83.4153 18.5319 84.2424 17.6956 85.4824 17.7929C86.1762 17.8438 89.6258 18.222 89.6315 17.6116C89.5651 17.4217 89.1029 17.5466 88.8262 17.5438C88.4769 17.5029 85.3356 17.7026 85.8423 17.246C87.0216 16.663 88.141 15.9693 89.2977 15.3087C89.8757 14.9784 90.4635 14.6566 91.0733 14.3623C91.6859 14.0793 92.3288 13.85 93.0063 13.6573C92.5476 13.61 92.0853 13.6481 91.6301 13.7406C91.1763 13.8394 90.7353 14.0165 90.3019 14.1972C89.4374 14.5663 88.6223 15.0116 87.8982 15.2643C87.9003 15.2255 87.9335 15.2325 87.9758 15.2403C88.1882 14.2826 89.3576 13.5105 89.1657 12.4787ZM72.8524 31.2797C73.9873 31.4625 74.9316 30.9226 75.9881 30.8054L76.0022 30.7751C75.9619 30.7758 75.9605 30.7822 76 30.7941C75.4587 31.219 74.9005 31.6241 74.4178 32.1005L74.4651 32.1485C75.4559 31.526 76.3755 30.8061 77.2033 30.0284C78.022 29.2613 78.7687 28.4186 79.4377 27.5146C79.533 27.5301 79.5104 27.6014 79.5069 27.655C79.3481 28.8364 78.7341 29.8873 78.3495 31.0009L78.3375 30.9882C78.6085 30.9868 78.5965 30.7539 78.66 30.6121C79.3192 29.1434 80.0129 27.6861 80.1428 26.0388C80.2642 25.6366 80.2896 25.1588 80.5697 24.8229C81.5154 28.4659 80.0842 32.6884 76.3134 33.9982C75.1602 34.3955 73.8729 34.8084 72.6344 34.9369C72.0274 35.0039 71.3506 35.0117 70.6816 34.9305C70.0139 34.8451 69.3498 34.6877 68.69 34.4083C66.5664 33.6298 69.4599 29.9402 69.8841 28.684C70.7663 27.0248 72.2201 25.933 74.4044 25.6034C76.2344 25.3373 78.2097 24.8885 79.4455 23.6577C79.5683 23.4572 79.8082 23.5546 79.7511 23.7692C79.9381 25.5469 78.444 26.0755 76.6663 26.499C75.7749 26.7022 74.8299 26.8455 73.9604 27.0664C73.0846 27.2915 72.309 27.5717 71.8016 28.029L71.8058 28.0333C73.163 27.6 74.5187 27.1095 76.0283 27.132C77.0947 27.1575 78.0728 26.8314 78.9931 26.5392C79.1187 26.6267 79.0129 26.7269 78.9783 26.8095C78.5428 27.8583 77.9324 28.804 77.1638 29.6565C76.0494 30.7264 74.2322 30.8012 72.8609 31.2924L72.8524 31.2797ZM88.1021 40.87C89.46 40.213 90.7466 39.3421 91.827 38.2221C91.5497 39.0344 91.2815 39.7613 91.0225 40.3958C90.7635 41.0302 90.5045 41.5814 90.189 42.0931C89.563 43.1178 88.6928 43.9675 87.1995 45.0502C86.8763 45.2598 87.0612 45.3882 87.287 45.1532C88.5355 44.3091 89.1946 43.6761 89.4049 43.5766C89.5122 43.5286 89.5122 43.6182 89.4282 43.8892C89.3428 44.1602 89.1883 44.6027 88.8954 45.2958C88.8361 45.4785 88.6971 45.6811 88.7924 45.8406L88.7782 45.8455C89.0111 45.3685 89.2454 44.8878 89.479 44.4079C89.7006 43.9238 89.9222 43.4404 90.1424 42.9597C90.5927 41.9844 91.0698 40.9886 91.6132 40.0323C91.7395 40.0577 91.6901 40.1826 91.6824 40.2709C91.645 40.9787 91.5829 41.6944 91.5765 42.3697C91.5264 43.0861 91.5313 43.7608 91.6937 44.3564C91.9146 44.1595 91.7889 43.957 91.7953 43.7601C91.7981 43.0967 91.8955 42.3634 91.9273 41.6774C91.9703 40.9583 92.0127 40.2455 92.055 39.5334C92.2441 38.1565 93.06 36.9461 93.2893 35.5629C93.3966 35.0328 94.0861 36.1888 94.4651 37.6152C94.6627 38.3209 94.8709 39.009 94.9231 39.6131C94.9845 40.2109 94.9867 40.6414 94.9203 40.7381C94.8688 42.1474 94.2739 43.1842 93.3952 44.1299C92.5321 45.0565 91.4601 45.8314 90.4283 46.6091C89.4325 47.5922 88.395 48.4892 87.1691 49.1548C86.6645 49.358 85.0561 50.6502 85.1691 49.9642C85.3293 48.4617 86.2037 46.3826 85.7781 44.5625C85.5615 43.5575 85.8748 42.4784 86.2912 41.4431C86.7273 40.3915 87.3668 39.3336 87.7598 38.2524C88.0958 37.1628 88.8608 36.5403 89.7825 36.0512C90.242 35.8056 90.7367 35.5904 91.2187 35.3561C91.6845 35.1373 92.139 34.8995 92.5314 34.5769C92.6288 34.4541 92.8045 34.5685 92.7346 34.7011C92.5511 37.6067 90.2765 39.4254 88.088 40.8362L88.1021 40.87ZM108.862 35.2015C107.565 34.445 106.351 33.7053 104.994 33.121C104.896 33.0758 104.727 33.0723 104.717 32.8973C105.685 32.8344 106.821 32.9086 107.864 32.9961C108.91 33.0793 109.949 33.1224 110.842 32.8627L110.848 32.8831C109.747 32.6855 108.697 32.6121 107.626 32.5373C106.526 32.4809 105.429 32.4103 104.305 32.1936C104.133 32.1343 103.806 32.2106 103.708 31.9812C105.186 30.6586 106.947 29.4257 109.082 28.9423C109.862 28.7941 110.686 28.739 111.627 28.9303C111.761 28.9571 112.033 29.0997 111.948 28.8583C111.242 28.3685 110.115 28.5111 109.464 28.5202C107.125 28.7807 105.224 29.6911 103.7 31.1174C103.01 31.7631 102.216 32.0426 101.057 31.7794C97.4652 31.3326 99.7187 31.5888 100.113 29.3325C100.027 29.2584 99.9713 29.3248 99.9389 29.3671L98.5507 31.188C98.4723 31.4364 97.5252 31.3397 97.6628 31.0235C98.063 30.262 98.0235 29.2944 98.2867 28.461C98.6184 27.6162 99.3898 27.1793 100.24 26.8025C101.086 26.4228 102.008 26.1052 102.547 25.4136C104.024 24.3154 106.45 24.8384 109.134 26.096C110.413 26.7792 111.747 27.6444 113.021 28.5506C114.213 29.4977 115.355 30.4801 116.366 31.3305C117.193 32.0955 117.873 32.9071 117.37 33.6326C116.469 35.4669 115.21 36.7817 113.348 37.1924C112.618 37.3554 111.912 37.5643 111.332 38.0153C110.301 38.8453 108.929 38.7775 107.548 38.3336C106.876 38.1007 106.127 37.8029 105.408 37.4557C104.691 37.107 104.001 36.709 103.369 36.2996C102.521 35.7351 101.727 35.0702 100.993 34.3483C100.635 33.9778 100.235 33.6468 99.8386 33.3186C99.4441 32.989 99.0496 32.6665 98.6502 32.3672C98.6318 32.2332 98.7546 32.2776 98.8407 32.2804C99.6022 32.2381 100.332 32.6397 101.048 33.157C101.739 33.6997 102.362 34.4033 103.057 34.8889C103.306 35.0406 103.735 35.5819 103.943 35.3702C103.993 35.2657 103.817 35.1627 103.719 35.0794C103.612 34.9538 102.72 34.2191 101.997 33.5712C101.815 33.4089 101.645 33.2508 101.499 33.1083C101.346 32.9714 101.209 32.857 101.12 32.7589C100.94 32.5656 100.924 32.4576 101.202 32.5112C102.21 32.6234 103.158 32.483 104.165 33.1097C105.788 33.9876 107.274 34.7774 108.882 35.3151L108.862 35.2015ZM102.562 46.029C102.659 46.0036 102.693 46.1116 102.727 46.192C102.929 46.6854 103.139 47.1744 103.357 47.66L103.92 49.1675C104.113 49.6678 104.314 50.1654 104.523 50.6615C104.743 51.1513 104.888 51.6778 105.085 52.181C105.221 52.4506 105.557 53.404 105.838 53.3391C105.94 53.2615 105.842 53.1288 105.799 53.03C105.722 52.9086 105.242 51.5868 104.795 50.4858C104.328 49.3947 104.004 48.4624 104.499 48.9826L105.602 49.9057C105.976 50.2169 106.348 50.538 106.672 50.8888C107.344 51.5825 107.988 52.3384 108.541 53.217C108.586 53.2841 108.634 53.4224 108.73 53.3483C108.809 53.2869 108.768 53.1712 108.716 53.0907C108.105 52.09 107.384 51.2233 106.64 50.4173C105.84 49.6297 105 48.9134 104.23 48.1702C104.006 47.9705 103.849 47.7299 103.701 47.48C103.547 47.233 103.425 46.9641 103.319 46.6847C103.105 46.1264 102.947 45.5244 102.7 44.9965C102.671 44.9168 102.631 44.8109 102.7 44.7552C103.993 45.547 105.528 46.005 106.912 46.7489C107.029 46.8089 107.227 46.9521 107.254 46.8576C107.193 46.684 107.03 46.5146 106.811 46.3544C106.584 46.1963 106.285 46.0537 105.984 45.9203C105.378 45.6543 104.734 45.4418 104.412 45.264C103.576 44.9803 103.054 44.662 102.634 44.2082C102.197 43.7657 101.907 43.1665 101.616 42.2766C101.538 42.0874 101.578 42.0028 101.763 42.0931C102.911 42.6556 104.101 42.753 105.324 42.8758C106.248 42.9661 107.078 43.4495 107.797 44.1743C108.154 44.5371 108.478 44.9612 108.76 45.4256C109.008 45.8992 109.205 46.4151 109.355 46.95C109.572 47.7094 109.793 48.4808 110.014 49.2514C110.178 50.0292 110.33 50.8069 110.435 51.5769C110.682 53.1112 110.599 54.6306 110.109 56.0202C109.381 58.0154 109.061 60.3634 108.118 62.1701C107.667 62.8575 106.775 61.8588 105.959 60.6118C105.545 59.9886 105.174 59.2913 104.842 58.7098C104.499 58.1325 104.243 57.6519 104.144 57.4225C103.772 56.642 103.367 55.9024 102.895 55.222C102.392 54.5593 101.854 53.9432 101.288 53.368C100.25 52.2367 99.5288 51.3659 99.2381 50.4357C98.9572 49.497 98.8838 48.6763 99.051 47.7525C99.1294 47.2951 99.255 46.8251 99.4074 46.3388C99.5542 45.8632 99.7053 45.3755 99.8591 44.8772C100.171 43.8779 100.544 42.7762 100.738 41.6245C100.86 41.5871 100.866 41.7219 100.899 41.7903C101.108 42.3627 101.409 42.9202 101.661 43.4848C101.902 44.0551 102.141 44.6027 102.083 45.2195C102.107 46.2069 101.845 47.1766 101.643 48.1067C101.433 49.044 101.199 49.9988 101.428 50.9234L101.413 50.9205C101.559 50.1089 101.774 49.2924 102.006 48.466C102.21 47.6565 102.395 46.8562 102.562 46.029ZM61.1533 9.98319C60.0651 9.5908 58.7658 9.58162 57.6147 9.21464C55.9287 8.7312 54.1213 8.61687 52.4071 8.55124C53.9138 7.44957 56.1419 6.60762 58.4927 6.70219C60.3107 6.72689 62.14 7.40088 63.8944 7.27737C62.1068 6.77559 60.0982 6.47777 58.3057 6.18065C61.0115 5.06134 64.6531 5.09239 67.3843 3.9632C67.7506 3.58069 66.3695 4.13329 66.1324 4.16716C61.4377 5.07828 56.3176 5.50666 52.2384 7.68882C52.0231 7.87725 51.7874 7.81021 51.9956 7.54626C53.1756 5.64428 54.9506 4.10506 57.4185 3.0662C58.782 2.5736 58.5075 2.30047 57.2972 2.93352C56.1969 3.44377 55.0289 3.88628 54.0825 4.56661C52.827 5.46079 51.9448 6.56457 51.3668 7.79186C51.2002 8.14614 50.9194 8.40091 50.5213 8.61052C49.5982 9.1003 48.7619 9.68466 47.9792 10.286C47.848 10.4469 47.6616 10.3876 47.6941 10.1942C47.8275 8.70086 47.8183 7.02401 49.3554 5.93434C51.1254 4.6019 52.9088 2.98504 55.0465 1.84739C57.1758 0.715373 59.6762 0.0660898 62.6679 0.76407C65.0886 1.19951 67.4761 1.56015 69.8523 1.82692C71.388 2.00124 71.5708 2.24613 71.1537 3.29557C70.69 4.46146 69.889 5.45303 68.8911 6.34156C66.6052 8.14403 65.4337 11.0722 61.732 11.3961C57.6931 11.8591 53.472 10.5104 49.3455 10.5457C49.8403 9.73689 51.1974 9.16171 52.2638 9.19135C55.4566 8.83354 58.1702 10.0636 61.1533 9.98319ZM58.6606 27.5844C58.6388 27.691 58.6959 28.2231 58.8576 27.9662C58.7326 24.9435 60.2161 22.1311 59.9013 19.1134C59.8519 18.541 60.5549 19.2574 61.2627 20.1508C61.9727 21.0457 62.6777 22.1368 62.7278 22.2843C63.1414 24.0183 62.0362 25.7622 61.797 27.372C62.1004 27.3748 62.1753 26.6994 62.3164 26.4806C62.7363 25.5582 62.9057 24.3726 63.2967 23.5328C63.6982 24.4248 63.9805 25.3465 64.1379 26.276C64.1513 26.3628 64.0991 26.4722 64.2473 26.5216C64.2805 23.4819 62.948 20.3096 60.4285 17.9016C60.0975 17.6885 60.2747 17.5029 60.5746 17.728C64.9411 19.9349 66.9912 24.2046 65.8197 28.0552C65.5734 29.7574 64.6256 31.0729 63.3341 32.2169C62.6827 32.9368 62.0828 32.4308 61.5471 31.8393C60.2824 30.2655 58.871 28.7807 57.5844 27.2118C56.6867 26.1482 56.1913 24.8624 56.6295 23.6012C57.2195 21.5249 57.7919 19.3766 57.7954 17.2255C58.9373 17.4909 59.1194 19.028 59.2365 19.8057C59.4419 22.4918 58.5266 24.9217 58.6606 27.5844ZM107.499 60.4396C107.31 59.664 107.231 58.8129 107.05 57.9808C106.876 57.1466 106.691 56.3046 106.43 55.5177C106.412 55.4098 106.322 55.1698 106.412 55.119C106.621 55.2566 107.007 56.4966 107.298 57.7465C107.593 58.9949 107.667 60.2808 107.499 60.4396ZM101.353 51.1224C101.338 51.0377 101.4 50.9516 101.413 50.9205C101.432 50.9967 101.408 51.056 101.36 51.1075L101.353 51.1224ZM101.353 51.1217C101.389 51.1195 101.39 51.1259 101.355 51.1386L101.36 51.1075L101.353 51.1217ZM50.2066 26.0381L50.1607 26.0318C50.1706 26.0099 50.1903 26.0332 50.2066 26.0381ZM109.19 35.3624C109.468 35.3956 109.752 35.524 110.037 35.6984L110.059 35.8042C109.773 35.7654 109.488 35.6659 109.203 35.4408L109.19 35.3624ZM110.55 35.8903C111.043 35.8833 111.099 36.3476 110.564 35.9997L110.55 35.8903ZM110.037 35.6984C110.209 35.6786 110.386 35.7562 110.55 35.8903L110.564 35.9997C110.396 36.0237 110.238 35.9376 110.059 35.8042L110.037 35.6984ZM108.862 35.2015C108.976 35.1839 109.083 35.265 109.19 35.3631L109.203 35.4408C109.099 35.4859 108.991 35.397 108.883 35.3151L108.862 35.2015ZM110.847 32.8839L110.928 32.8846C110.909 32.9213 110.879 32.8937 110.84 32.8634L110.847 32.8839ZM88.1021 40.87C87.9539 41.0175 87.8008 41.1523 87.6004 41.1615L87.6032 41.1714C87.7189 40.9674 87.8925 40.8799 88.0908 40.8369L88.1021 40.87ZM87.3089 41.302C87.2581 41.4572 87.1275 41.4826 87.0188 41.5334C86.8565 41.52 87.2418 41.2878 87.3117 41.314L87.3089 41.302ZM87.4578 41.242C87.4931 41.1707 87.5382 41.134 87.6032 41.1714L87.6004 41.1615C87.5644 41.23 87.5185 41.2653 87.4543 41.2321L87.4578 41.242ZM87.4543 41.2321C87.4204 41.3097 87.3745 41.3443 87.3089 41.302L87.3117 41.314C87.3477 41.2448 87.395 41.2166 87.4578 41.242L87.4543 41.2321ZM72.1001 31.3136C71.9823 31.4745 71.6668 31.478 71.5016 31.363C71.7021 31.334 71.9067 31.3319 72.1121 31.3242L72.1001 31.3136ZM78.3375 30.9882C78.413 31.2621 78.2358 31.4286 78.0707 31.6008L78.0848 31.6156C78.0566 31.3623 78.226 31.1915 78.3502 31.0016L78.3375 30.9882ZM74.314 32.2452C74.1679 32.4138 74.043 32.6185 73.7346 32.5077L73.729 32.5183C73.9202 32.4286 74.0564 32.2586 74.2802 32.212L74.314 32.2452ZM72.8524 31.2797C72.6231 31.43 72.3634 31.3792 72.1008 31.3143L72.1121 31.3242C72.3471 31.2204 72.6019 31.2381 72.8623 31.291L72.8524 31.2797ZM71.8072 28.0319C71.8263 28.1095 71.7727 28.1356 71.7 28.1377C71.5249 28.1187 71.7 27.9676 71.803 28.0276L71.8072 28.0319ZM78.0714 31.6008C78.0298 31.821 77.8576 31.6269 78.0848 31.6156L78.0714 31.6008ZM74.4651 32.1485C74.4425 32.2162 74.3931 32.2494 74.314 32.2452L74.2802 32.212C74.2943 32.1428 74.3437 32.1082 74.4178 32.1005L74.4651 32.1485ZM73.7346 32.5077L73.7473 32.5493L73.7297 32.519L73.7346 32.5077Z" fill="#CBA78F"/>
</svg>
