<svg width="35" height="35" viewBox="0 0 35 35" fill="none" xmlns="http://www.w3.org/2000/svg">
<g clip-path="url(#clip0_111_14031)">
<path d="M10.2083 16.0417H13.125V18.9583H10.2083V16.0417ZM30.625 8.75001V29.1667C30.625 30.7708 29.3125 32.0833 27.7083 32.0833H7.29167C5.67292 32.0833 4.375 30.7708 4.375 29.1667L4.38958 8.75001C4.38958 7.14584 5.67292 5.83334 7.29167 5.83334H8.75V2.91667H11.6667V5.83334H23.3333V2.91667H26.25V5.83334H27.7083C29.3125 5.83334 30.625 7.14584 30.625 8.75001ZM7.29167 11.6667H27.7083V8.75001H7.29167V11.6667ZM27.7083 29.1667V14.5833H7.29167V29.1667H27.7083ZM21.875 18.9583H24.7917V16.0417H21.875V18.9583ZM16.0417 18.9583H18.9583V16.0417H16.0417V18.9583Z" fill="#A5C0B5"/>
</g>
<defs>
<clipPath id="clip0_111_14031">
<rect width="35" height="35" fill="white"/>
</clipPath>
</defs>
</svg>
