<svg width="192" height="12" viewBox="0 0 192 12" fill="none" xmlns="http://www.w3.org/2000/svg">
<path d="M0.39061 5.75979C8.35904 5.55669 16.3269 5.46913 24.2947 5.32082L48.1988 5.07005C64.135 4.90507 80.0713 4.88186 96.0076 4.85922L119.912 4.90626C127.879 4.95987 135.848 4.96405 143.816 5.06649L167.72 5.31784C175.688 5.46734 183.656 5.55549 191.624 5.75979C183.656 5.96409 175.688 6.05224 167.72 6.20174L143.816 6.45309C135.848 6.55554 127.879 6.55969 119.912 6.6133L96.0076 6.66036C80.0713 6.63773 64.135 6.6145 48.1988 6.44951L24.2947 6.19876C16.3263 6.05045 8.35844 5.9629 0.39061 5.75979Z" fill="#825B48"/>
<path d="M96.0075 1.083C88.9503 -3.47704 87.3025 7.5931 96.0075 11.52C104.713 7.5925 103.064 -3.47704 96.0075 1.083Z" fill="#825B48"/>
<path d="M47.6325 5.75579L45.0514 3.20145L42.4704 5.75579L45.0514 8.31013L47.6325 5.75579Z" fill="#825B48"/>
<path d="M2.97132 8.58241L0 5.64186L2.97132 2.70129V5.64186V8.58241Z" fill="#825B48"/>
<path d="M146.957 8.30816L149.538 5.75381L146.957 3.19947L144.376 5.75381L146.957 8.30816Z" fill="#825B48"/>
<path d="M189.029 8.58241L192 5.64186L189.029 2.70129V5.64186V8.58241Z" fill="#825B48"/>
</svg>
