<svg width="192" height="54" viewBox="0 0 192 54" fill="none" xmlns="http://www.w3.org/2000/svg">
<path d="M95.01 22.464C93.759 22.464 92.523 23.824 91.301 26.544H91.149C91.367 25.264 91.621 23.838 91.912 22.267C92.508 21.992 93.141 21.322 93.81 20.26C94.741 18.792 95.315 17.366 95.534 15.984C95.578 15.693 95.599 15.438 95.599 15.221C95.599 14.348 95.271 13.912 94.617 13.912C93.904 13.912 93.271 14.538 92.719 15.788C92.428 16.428 92.17 17.093 91.944 17.784C91.718 18.475 91.482 19.369 91.235 20.467C90.988 21.565 90.769 22.554 90.581 23.434C90.472 23.939 90.349 24.528 90.214 25.184L89.491 26.653C88.996 27.656 88.407 28.66 87.724 29.664C87.04 30.667 86.509 31.169 86.131 31.169C85.666 31.169 85.433 30.653 85.433 29.62C85.433 28.209 85.884 25.809 86.786 22.42H88.27C88.401 22.42 88.491 22.38 88.543 22.3C88.594 22.22 88.594 22.136 88.543 22.049C88.492 21.962 88.401 21.918 88.27 21.918H86.917L87.332 20.412C87.419 20.049 87.463 19.75 87.463 19.518C87.463 19.285 87.441 19.089 87.398 18.929C87.296 18.551 87.122 18.362 86.874 18.362C86.685 18.362 86.558 18.501 86.492 18.777C86.427 19.053 86.35 19.358 86.263 19.693L85.958 20.828C85.841 21.265 85.747 21.628 85.674 21.919H84.539C84.336 21.919 84.234 21.999 84.234 22.159C84.234 22.203 84.256 22.257 84.299 22.323C84.343 22.388 84.423 22.422 84.539 22.422H85.521C84.707 25.549 84.299 27.687 84.299 28.836C84.299 29.331 84.339 29.815 84.419 30.287C84.499 30.76 84.68 31.124 84.965 31.378C85.248 31.633 85.586 31.76 85.979 31.76C86.372 31.76 86.797 31.524 87.255 31.051C87.713 30.579 88.128 30.052 88.5 29.469C88.87 28.888 89.259 28.215 89.667 27.451C89.719 27.352 89.763 27.269 89.812 27.178C89.588 28.287 89.421 29.096 89.317 29.567C89.201 30.098 89.143 30.461 89.143 30.658C89.143 30.854 89.179 31.04 89.252 31.214C89.384 31.535 89.58 31.694 89.841 31.694C90.001 31.694 90.125 31.548 90.212 31.257C90.575 30.065 91.121 28.581 91.849 26.806C92.285 25.701 92.758 24.791 93.267 24.078C93.776 23.366 94.241 23.01 94.663 23.01C95.026 23.01 95.209 23.243 95.209 23.708C95.209 24.173 94.995 25.21 94.566 26.817C94.136 28.425 93.922 29.635 93.922 30.45C93.922 31.774 94.344 32.435 95.187 32.435C95.361 32.435 95.515 32.384 95.645 32.283C95.776 32.181 95.841 32.079 95.841 31.977C95.492 31.977 95.317 31.505 95.317 30.559C95.317 29.919 95.506 28.788 95.884 27.166C96.262 25.544 96.451 24.493 96.451 24.013C96.451 23.534 96.324 23.155 96.069 22.878C95.813 22.603 95.46 22.464 95.01 22.464ZM94.704 14.414C94.966 14.515 95.097 14.799 95.097 15.265C95.097 16.225 94.682 17.526 93.853 19.17C93.227 20.392 92.623 21.207 92.042 21.614C92.958 16.813 93.845 14.414 94.704 14.414ZM105.951 25.148H105.362L105.079 25.759C104.701 26.603 104.046 27.694 103.116 29.032C102.693 29.613 102.224 30.112 101.709 30.526C101.192 30.94 100.702 31.147 100.236 31.147C98.985 31.147 98.36 30.267 98.36 28.507C98.36 27.344 98.636 26.187 99.189 25.038C99.858 23.685 100.578 23.009 101.349 23.009C101.698 23.009 101.873 23.235 101.873 23.685C101.873 24.354 101.527 25.187 100.836 26.183C100.146 27.18 99.422 27.678 98.665 27.678L98.687 27.766C98.731 27.912 98.833 27.984 98.993 27.984C100.084 27.969 101.037 27.41 101.851 26.304C102.432 25.49 102.723 24.704 102.723 23.948C102.723 22.93 102.258 22.421 101.327 22.421C100.003 22.421 98.89 23.199 97.988 24.756C97.334 25.876 97.007 26.996 97.007 28.115C97.007 30.53 98.083 31.737 100.236 31.737C100.774 31.737 101.341 31.501 101.938 31.027C102.534 30.555 103.051 30.028 103.487 29.445C103.924 28.864 104.382 28.147 104.862 27.296C105.34 26.446 105.703 25.73 105.951 25.148ZM135.73 4.645C134.539 3.252 132.945 2.14 130.95 1.307C128.954 0.474999 126.693 0.0579987 124.167 0.0579987C120.577 0.0579987 117.448 0.933998 114.778 2.685C111.705 4.724 109.681 7.538 108.705 11.127C108.389 12.391 108.231 13.611 108.231 14.788C108.231 16.827 108.734 18.722 109.739 20.474C111.606 23.632 114.678 25.355 118.957 25.642C117.98 29.03 116.788 31.529 115.382 33.137C115.352 33.108 115.059 32.979 114.498 32.749C113.939 32.52 113.615 32.383 113.529 32.339C113.444 32.296 113.163 32.182 112.69 31.995C112.216 31.808 111.9 31.694 111.742 31.651C111.584 31.607 111.305 31.521 110.903 31.392C110.5 31.263 110.185 31.184 109.955 31.155C109.725 31.127 109.445 31.091 109.116 31.048C108.785 31.004 108.462 30.984 108.147 30.984C107.027 30.984 106.18 31.257 105.606 31.802C105.032 32.348 104.744 32.842 104.744 33.288C104.744 33.733 104.845 34.142 105.045 34.515C105.878 35.95 107.83 36.668 110.903 36.668C113.228 36.668 115.21 36.05 116.847 34.816C119.431 35.821 121.799 36.324 123.953 36.324C126.107 36.324 128.038 35.907 129.747 35.075C131.455 34.242 132.912 33.13 134.118 31.736C135.324 30.344 136.393 28.743 137.327 26.934C138.259 25.125 138.891 23.251 139.222 21.313C139.551 19.375 139.717 17.387 139.717 15.348C139.717 13.31 139.343 11.343 138.597 9.448C137.876 7.638 136.921 6.038 135.73 4.645ZM110.513 35.504C109.077 35.504 107.972 35.324 107.196 34.965C106.421 34.607 106.033 34.155 106.033 33.608C106.033 33.465 106.062 33.307 106.119 33.135C106.407 32.418 107.174 32.058 108.423 32.058C109.672 32.058 111.732 32.676 114.604 33.91C113.312 34.973 111.948 35.504 110.513 35.504ZM136.527 20.968C136.211 22.849 135.65 24.644 134.847 26.352C134.043 28.06 133.139 29.576 132.134 30.896C131.128 32.217 129.937 33.265 128.559 34.04C127.18 34.815 125.573 35.203 123.735 35.203C121.897 35.203 119.902 34.83 117.749 34.083C119.615 32.274 121.007 29.431 121.927 25.555C124.223 25.24 126.133 24.393 127.655 23.015C129.177 21.636 130.253 19.972 130.885 18.019C130.914 17.846 130.878 17.718 130.778 17.631C130.677 17.545 130.548 17.517 130.39 17.545C130.232 17.574 130.138 17.66 130.11 17.803C129.565 19.555 128.609 21.048 127.246 22.282C125.882 23.517 124.195 24.279 122.185 24.565C122.53 23.072 122.853 21.242 123.154 19.073C123.456 16.906 123.714 15.061 123.93 13.539C124.145 12.017 124.439 10.524 124.813 9.06C125.53 6.073 126.809 4.581 128.646 4.581L128.603 4.408C128.459 4.035 128.186 3.848 127.785 3.848C125.659 3.848 124.066 5.441 123.004 8.629C122.487 10.208 122.057 11.751 121.712 13.258C121.367 14.766 120.958 16.69 120.484 19.03C120.01 21.371 119.601 23.23 119.256 24.607C117.389 24.406 115.739 23.775 114.304 22.712C111.634 20.702 110.299 17.745 110.299 13.84C110.299 10.968 111.174 8.385 112.926 6.087C115.425 2.756 119.027 1.091 123.737 1.091C125.948 1.091 127.915 1.479 129.638 2.253C131.361 3.029 132.725 4.077 133.73 5.397C134.735 6.718 135.532 8.233 136.121 9.941C136.709 11.65 137.004 13.444 137.004 15.325C137.001 17.207 136.843 19.088 136.527 20.968ZM189.889 21.98L189.33 23.186C188.582 24.851 187.291 27.006 185.454 29.647C184.621 30.796 183.694 31.779 182.676 32.597C181.656 33.415 180.687 33.824 179.769 33.824C177.299 33.824 176.065 32.087 176.065 28.613C176.065 26.317 176.61 24.033 177.702 21.765C179.022 19.095 180.444 17.76 181.965 17.76C182.654 17.76 182.998 18.205 182.998 19.095C182.998 20.416 182.316 22.061 180.953 24.027C179.589 25.994 178.16 26.977 176.667 26.977L176.711 27.15C176.797 27.438 176.998 27.581 177.314 27.581C179.467 27.553 181.347 26.447 182.956 24.265C184.104 22.657 184.679 21.107 184.679 19.613C184.679 17.603 183.76 16.599 181.922 16.599C179.309 16.599 177.112 18.135 175.332 21.207C174.861 22.014 174.477 22.821 174.178 23.628L173.525 24.954C172.548 26.935 171.386 28.916 170.037 30.897C168.687 32.878 167.639 33.869 166.893 33.869C165.973 33.869 165.514 32.85 165.514 30.811C165.514 28.026 166.404 23.288 168.185 16.598H171.113C171.372 16.598 171.551 16.519 171.652 16.361C171.752 16.203 171.752 16.038 171.652 15.865C171.551 15.693 171.372 15.607 171.113 15.607H168.443L169.261 12.635C169.434 11.918 169.52 11.329 169.52 10.869C169.52 10.41 169.476 10.022 169.39 9.706C169.189 8.96 168.844 8.586 168.356 8.586C167.983 8.586 167.732 8.86 167.602 9.404C167.473 9.949 167.322 10.553 167.15 11.213L166.548 13.453C166.317 14.314 166.131 15.032 165.988 15.606H163.748C163.346 15.606 163.145 15.764 163.145 16.08C163.145 16.165 163.189 16.273 163.274 16.402C163.36 16.532 163.519 16.596 163.748 16.596H165.686C165.158 18.624 164.725 20.42 164.371 22.026L162.93 24.952C161.954 26.933 160.791 28.914 159.442 30.895C158.092 32.876 157.044 33.867 156.298 33.867C155.637 33.867 155.307 33.178 155.307 31.8C155.307 31.484 155.343 30.967 155.415 30.249C155.487 29.532 155.996 26.876 156.944 22.281C157.03 21.793 157.074 21.362 157.074 20.989C157.074 19.783 156.714 19.18 155.997 19.18C155.594 19.18 155.221 19.683 154.877 20.688C154.533 21.693 153.398 23.947 151.475 27.45C150.584 29.116 149.615 30.573 148.568 31.821C147.52 33.071 146.63 33.695 145.898 33.695C145.165 33.695 144.799 32.863 144.799 31.197C144.799 28.498 145.488 25.64 146.867 22.626C148.331 19.382 149.968 17.759 151.777 17.759C152.294 17.759 152.688 17.867 152.961 18.082C153.234 18.297 153.37 18.534 153.37 18.792C153.37 19.051 153.506 19.187 153.78 19.202C154.053 19.217 154.189 19.094 154.189 18.836C154.189 18.262 153.959 17.745 153.501 17.285C153.041 16.827 152.417 16.597 151.627 16.597C150.837 16.597 150.055 16.755 149.279 17.07C147.068 18.047 145.245 20.128 143.81 23.315C142.777 25.67 142.259 27.838 142.259 29.819C142.259 33.237 143.394 34.944 145.662 34.944C147.643 34.944 150.098 32.217 153.027 26.761H153.328C153.098 28.14 152.984 29.346 152.984 30.379C152.984 33.48 154.045 35.03 156.171 35.03C156.831 35.03 157.613 34.564 158.518 33.63C159.423 32.698 160.241 31.656 160.973 30.508C161.706 29.36 162.474 28.031 163.277 26.524C163.4 26.293 163.506 26.093 163.616 25.883C163.39 27.283 163.277 28.409 163.277 29.26C163.277 30.236 163.357 31.191 163.514 32.124C163.673 33.057 164.031 33.775 164.591 34.277C165.15 34.78 165.818 35.031 166.594 35.031C167.37 35.031 168.209 34.565 169.113 33.631C170.018 32.699 170.836 31.657 171.568 30.509C172.16 29.581 172.776 28.53 173.414 27.367C173.407 27.524 173.397 27.682 173.397 27.839C173.397 32.605 175.522 34.989 179.772 34.989C180.833 34.989 181.953 34.523 183.131 33.589C184.308 32.656 185.327 31.615 186.189 30.467C187.05 29.318 187.955 27.904 188.902 26.224C189.85 24.545 190.567 23.131 191.055 21.982H189.889V21.98ZM28.104 7.365C29.009 5.987 29.446 4.608 29.417 3.231C29.359 2.283 29.087 1.508 28.599 0.904999C28.111 0.301999 27.437 0 26.575 0C23.215 0 21.535 3.187 21.535 9.562C21.535 10.538 21.593 11.529 21.708 12.534L16.066 17.271C14.831 16.095 13.18 15.505 11.113 15.505C9.649 15.505 8.263 15.828 6.957 16.474C5.65 17.12 4.545 17.982 3.64 19.058C2.735 20.135 1.902 21.557 1.142 23.322C0.380002 25.088 0 27.091 0 29.33C0 31.742 0.474001 33.839 1.421 35.618C0.674001 37.8 0.300999 40.198 0.300999 42.811C0.300999 45.423 1.033 47.799 2.498 49.939C3.962 52.078 5.828 53.148 8.097 53.148C8.269 53.148 8.348 53.004 8.333 52.718C8.318 52.43 8.24 52.287 8.097 52.287C6.173 52.287 4.601 51.362 3.381 49.51C2.16 47.658 1.55 45.575 1.55 43.264C1.55 40.953 1.809 38.893 2.326 37.084C4.222 39.61 7.021 40.875 10.724 40.875C13.309 40.875 15.576 40.415 17.529 39.496C19.481 38.577 21.017 37.3 22.137 35.662C23.257 34.025 24.089 32.21 24.635 30.214C25.18 28.218 25.453 26.151 25.453 24.012C25.453 21.873 25.007 17.831 24.118 11.888C25.872 10.252 27.2 8.744 28.104 7.365ZM1.939 34.198C1.393 32.763 1.121 31.198 1.121 29.503C1.121 27.982 1.35 26.503 1.81 25.067C2.844 21.679 4.552 19.267 6.935 17.831C8.227 17.055 9.677 16.668 11.285 16.668C12.893 16.668 14.156 17.157 15.075 18.133C8.299 23.876 3.921 29.231 1.939 34.198ZM19.899 34.672C18.98 36.222 17.709 37.449 16.087 38.354C14.464 39.259 12.577 39.711 10.423 39.711C6.92 39.711 4.351 38.39 2.714 35.748C3.748 32.647 5.369 29.777 7.58 27.134C9.791 24.493 12.505 21.794 15.72 19.037C16.035 19.812 16.194 20.616 16.194 21.448C16.194 23.459 15.447 25.268 13.954 26.875C12.92 28.024 11.786 28.598 10.552 28.598C10.609 28.914 10.717 29.144 10.875 29.287C11.033 29.431 11.256 29.502 11.542 29.502C12.921 29.502 14.133 29.093 15.181 28.275C16.229 27.457 16.961 26.508 17.378 25.432C17.794 24.355 18.003 23.135 18.003 21.771C18.003 20.407 17.6 19.18 16.797 18.088L21.836 13.91C22.353 19.309 22.612 22.539 22.612 23.601C22.613 27.939 21.709 31.629 19.899 34.672ZM23.948 10.467C23.804 9.175 23.733 8.141 23.733 7.365C23.733 3.231 24.68 1.163 26.576 1.163C27.666 1.163 28.213 1.911 28.213 3.403C28.212 5.327 26.791 7.682 23.948 10.467ZM78.327 23.387C77.579 25.052 76.288 27.207 74.451 29.848C73.618 30.996 72.691 31.98 71.673 32.798C70.653 33.616 69.684 34.025 68.766 34.025C66.296 34.025 65.062 32.288 65.062 28.814C65.062 26.518 65.607 24.234 66.699 21.966C68.019 19.296 69.441 17.961 70.962 17.961C71.651 17.961 71.995 18.406 71.995 19.296C71.995 20.617 71.313 22.262 69.95 24.228C68.586 26.195 67.157 27.178 65.664 27.178L65.708 27.351C65.794 27.639 65.995 27.781 66.311 27.781C68.464 27.753 70.344 26.647 71.953 24.465C73.101 22.857 73.676 21.307 73.676 19.813C73.676 17.803 72.757 16.798 70.92 16.798C69.298 16.798 67.838 17.392 66.537 18.575C66.511 18.58 66.486 18.577 66.46 18.585C66.316 18.628 66.245 18.707 66.245 18.821C66.245 18.84 66.238 18.86 66.237 18.88C65.665 19.452 65.126 20.144 64.618 20.954C64.341 21.08 64.05 21.147 63.746 21.147C63.114 21.147 62.555 21.076 62.067 20.932C62.124 20.474 62.153 20.027 62.153 19.597C62.153 17.214 61.535 16.022 60.301 16.022C59.668 16.022 59.238 16.396 59.009 17.142C58.894 17.458 58.836 17.824 58.836 18.24C58.836 18.657 58.972 19.246 59.246 20.006C59.518 20.767 60.085 21.377 60.947 21.836C60.458 24.736 59.547 27.478 58.212 30.063C56.876 32.647 55.434 33.939 53.883 33.939C52.82 33.939 52.289 33.092 52.289 31.398C52.289 30.795 52.36 30.07 52.504 29.223C52.648 28.376 53.265 25.9 54.356 21.794C54.529 21.133 54.615 20.566 54.615 20.092C54.615 19.619 54.557 19.224 54.442 18.908C54.212 18.162 53.839 17.788 53.322 17.788C52.949 17.788 52.676 18.09 52.504 18.693C52.141 19.968 51.821 21.122 51.535 22.182H51.514L50.05 25.155C49.074 27.136 47.911 29.117 46.561 31.098C45.211 33.079 44.163 34.07 43.417 34.07C42.756 34.07 42.426 33.381 42.426 32.003C42.426 31.687 42.462 31.17 42.534 30.452C42.606 29.735 43.115 27.079 44.063 22.484C44.149 21.996 44.193 21.566 44.193 21.193C44.193 19.987 43.833 19.384 43.116 19.384C42.713 19.384 42.34 19.887 41.996 20.892C41.652 21.897 40.517 24.151 38.594 27.654C37.703 29.319 36.734 30.776 35.687 32.025C34.639 33.275 33.749 33.899 33.017 33.899C32.284 33.899 31.918 33.067 31.918 31.401C31.918 28.702 32.607 25.844 33.986 22.83C35.45 19.586 37.087 17.963 38.896 17.963C39.413 17.963 39.807 18.071 40.08 18.286C40.353 18.501 40.489 18.738 40.489 18.996C40.489 19.255 40.625 19.391 40.899 19.406C41.172 19.421 41.308 19.298 41.308 19.04C41.308 18.466 41.078 17.949 40.62 17.489C40.16 17.031 39.536 16.801 38.746 16.801C37.956 16.801 37.174 16.959 36.398 17.274C34.187 18.251 32.364 20.332 30.929 23.519C29.895 25.874 29.378 28.042 29.378 30.023C29.378 33.441 30.513 35.148 32.781 35.148C34.762 35.148 37.217 32.421 40.146 26.965H40.447C40.217 28.344 40.103 29.55 40.103 30.583C40.103 33.684 41.165 35.234 43.29 35.234C43.95 35.234 44.732 34.768 45.637 33.834C46.542 32.902 47.36 31.86 48.092 30.712C48.821 29.57 49.585 28.248 50.384 26.749C50.308 27.088 50.238 27.41 50.181 27.697C49.952 28.846 49.837 29.836 49.837 30.67C49.837 31.503 49.966 32.292 50.225 33.039C50.684 34.417 51.948 35.106 54.015 35.106C55.135 35.106 56.283 34.417 57.461 33.039C59.701 30.426 61.193 26.823 61.94 22.228C62.312 22.314 62.729 22.357 63.189 22.357C63.42 22.357 63.635 22.331 63.849 22.302C62.881 24.215 62.395 26.129 62.395 28.043C62.395 32.809 64.52 35.193 68.77 35.193C69.831 35.193 70.951 34.727 72.13 33.793C73.306 32.86 74.326 31.819 75.188 30.671C76.049 29.522 76.954 28.108 77.901 26.428C78.849 24.749 79.566 23.335 80.054 22.186H78.891L78.327 23.387Z" fill="url(#paint0_linear_151_102730)"/>
<defs>
<linearGradient id="paint0_linear_151_102730" x1="117.368" y1="71.6655" x2="63.3438" y2="-21.9064" gradientUnits="userSpaceOnUse">
<stop stop-color="#D89E3A"/>
<stop offset="0.097" stop-color="#DBA140"/>
<stop offset="0.2252" stop-color="#E2AA50"/>
<stop offset="0.302083" stop-color="#EEB96A"/>
<stop offset="0.421875" stop-color="#F6C37D"/>
<stop offset="0.5" stop-color="#FCCA89"/>
<stop offset="0.5778" stop-color="#F9C683"/>
<stop offset="0.6736" stop-color="#F1B973"/>
<stop offset="0.7789" stop-color="#E3A559"/>
<stop offset="0.8901" stop-color="#D08A37"/>
<stop offset="1" stop-color="#BB6C15"/>
</linearGradient>
</defs>
</svg>
