<svg width="191" height="163" viewBox="0 0 191 163" fill="none" xmlns="http://www.w3.org/2000/svg">
<path d="M158.736 20.8684C161.219 16.0296 158.204 10.7907 158.204 10.7907C158.204 10.7907 155.438 15.9473 155.349 19.5629C155.311 21.148 155.024 24.7492 154.953 25.641C153.941 24.3818 152.968 23.2321 152.044 22.1889C152.318 21.9519 153.248 20.8325 153.791 16.2605C154.432 10.8593 149.78 7 149.78 7C149.78 7 148.984 12.7974 150.162 16.2169C150.673 17.7031 151.647 21.1276 151.901 22.0254C151.168 21.2016 150.47 20.4491 149.807 19.7585C149.649 19.0861 149.013 17.6175 146.586 14.8843C142.975 10.8167 137 11.7306 137 11.7306C137 11.7306 140.805 16.176 144.143 17.5678C145.413 18.0971 148.029 19.349 149.225 19.9259C150.53 21.2784 151.995 22.8978 153.566 24.7918C152.844 24.2647 151.844 23.6354 150.433 22.9005C145.609 20.3878 140.353 23.3718 140.353 23.3718C140.353 23.3718 145.493 26.1686 149.108 26.2786C150.657 26.3261 154.127 26.62 155.113 26.7057C156.024 27.862 156.963 29.1079 157.923 30.4445C157.2 30.0859 155.886 29.6389 153.513 29.2743C148.729 28.5394 148.62 31.0008 148.62 31.0008C148.62 31.0008 150.287 33.4423 153.364 32.4998C154.632 32.1114 157.459 31.4069 158.438 31.1655C159.941 33.2948 161.487 35.6441 163.045 38.2293L163.505 37.9519C161.941 35.3557 160.387 32.9954 158.877 30.8561C159.357 30.555 160.395 29.6008 161.951 26.5681C164.161 22.2624 161.861 21.3806 161.861 21.3806C161.861 21.3806 159.017 22.19 158.938 25.4067C158.907 26.6686 158.701 29.3615 158.612 30.4831C157.398 28.7792 156.214 27.2178 155.078 25.7968C155.481 25.6211 156.726 24.7846 158.736 20.8684Z" fill="url(#paint0_linear_188_5300)"/>
<path d="M164.227 34.6722C159.165 32.6837 157.964 26.7603 157.964 26.7603C157.964 26.7603 163.448 28.8002 165.905 31.4544C166.982 32.618 169.577 35.1308 170.221 35.7523C170.148 34.139 170.117 32.6329 170.121 31.24C169.759 31.2433 168.321 31.0179 164.892 27.9471C160.84 24.3188 161.778 18.3479 161.778 18.3479C161.778 18.3479 166.208 22.1712 167.586 25.515C168.185 26.968 169.718 30.1809 170.121 31.0223C170.127 29.9201 170.153 28.8935 170.193 27.9377C169.867 27.3288 169.374 25.8061 169.387 22.1513C169.407 16.7119 174.494 13.4477 174.494 13.4477C174.494 13.4477 174.578 19.2987 172.994 22.5497C172.391 23.7867 171.256 26.4553 170.74 27.6791C170.655 29.5565 170.627 31.74 170.7 34.1998C170.893 33.3268 171.228 32.1931 171.801 30.7096C173.759 25.6349 179.675 24.3989 179.675 24.3989C179.675 24.3989 177.668 29.8952 175.028 32.3677C173.897 33.4279 171.488 35.9424 170.805 36.6584C170.886 38.1287 171.005 39.684 171.169 41.321C171.474 40.574 172.164 39.3701 173.703 37.5275C176.806 33.8136 178.516 35.5882 178.516 35.5882C178.516 35.5882 178.879 38.522 175.948 39.8492C174.741 40.3956 172.153 41.7371 171.259 42.2028C171.539 44.7935 171.932 47.5782 172.473 50.5484L171.944 50.6446C171.401 47.6621 171.007 44.8643 170.725 42.2608C170.166 42.352 168.756 42.3227 165.583 41.0763C161.079 39.3072 162.221 37.1248 162.221 37.1248C162.221 37.1248 164.89 35.8523 167.076 38.2132C167.933 39.1397 169.868 41.0232 170.677 41.8061C170.46 39.7254 170.317 37.7717 170.23 35.954C169.811 36.086 168.325 36.2811 164.227 34.6722Z" fill="url(#paint1_linear_188_5300)"/>
<path d="M173.569 54.2364C177.488 50.4639 176.333 44.5311 176.333 44.5311C176.333 44.5311 172.045 48.5124 170.79 51.9043C170.239 53.3911 168.802 56.705 168.444 57.5254C167.896 56.0066 167.347 54.6033 166.812 53.317C167.148 53.1817 168.391 52.4242 170.386 48.2749C172.743 43.373 169.593 38.2148 169.593 38.2148C169.593 38.2148 166.962 43.441 166.967 47.0577C166.969 48.6296 166.78 52.1844 166.729 53.1165C166.302 52.0998 165.886 51.1611 165.483 50.2932C165.552 49.6058 165.426 48.0102 164.016 44.6383C161.919 39.6199 155.97 38.5474 155.97 38.5474C155.97 38.5474 158.129 43.9863 160.836 46.3847C161.865 47.2975 163.935 49.3296 164.879 50.2633C165.676 51.9656 166.536 53.9723 167.409 56.274C166.897 55.5414 166.154 54.6215 165.058 53.4695C161.309 49.529 155.369 50.6479 155.369 50.6479C155.369 50.6479 159.325 54.9596 162.709 56.2354C164.16 56.7823 167.347 58.1857 168.252 58.5857C168.739 59.9753 169.224 61.4582 169.698 63.0334C169.13 62.4599 168.033 61.6112 165.906 60.4968C161.619 58.2514 160.718 60.5438 160.718 60.5438C160.718 60.5438 161.504 63.3936 164.72 63.4991C166.044 63.5428 168.948 63.7931 169.953 63.882C170.683 66.3832 171.385 69.1071 172.021 72.0574L172.547 71.9442C171.908 68.9805 171.203 66.2445 170.468 63.7312C171.019 63.6019 172.311 63.0361 174.766 60.6714C178.253 57.3149 176.363 55.7348 176.363 55.7348C176.363 55.7348 173.411 55.5784 172.293 58.5962C171.855 59.7802 170.786 62.2604 170.339 63.2931C169.743 61.2875 169.129 59.4272 168.515 57.7144C168.95 57.6768 170.398 57.289 173.569 54.2364Z" fill="url(#paint2_linear_188_5300)"/>
<path d="M170.774 67.1535C167.358 62.9207 169.244 57.1785 169.244 57.1785C169.244 57.1785 173.001 61.6643 173.823 65.1865C174.184 66.7302 175.196 70.1983 175.448 71.0569C176.183 69.6182 176.901 68.2944 177.594 67.0855C177.278 66.9093 176.139 66.002 174.678 61.6367C172.951 56.4791 176.72 51.754 176.72 51.754C176.72 51.754 178.678 57.268 178.221 60.856C178.023 62.4152 177.766 65.9661 177.7 66.8971C178.25 65.9418 178.781 65.0628 179.289 64.2517C179.306 63.5616 179.631 61.9936 181.451 58.8244C184.159 54.1071 190.195 53.7867 190.195 53.7867C190.195 53.7867 187.374 58.9134 184.388 60.9549C183.252 61.7317 180.946 63.4898 179.892 64.2981C178.889 65.8877 177.785 67.7712 176.632 69.9458C177.231 69.2828 178.083 68.4634 179.315 67.4568C183.527 64.0152 189.28 65.8678 189.28 65.8678C189.28 65.8678 184.817 69.6513 181.3 70.495C179.792 70.8563 176.455 71.8503 175.507 72.1348C174.85 73.4526 174.184 74.8631 173.516 76.367C174.151 75.8692 175.347 75.1637 177.596 74.3244C182.13 72.6321 182.738 75.0195 182.738 75.0195C182.738 75.0195 181.602 77.7489 178.398 77.4522C177.078 77.3301 174.166 77.2157 173.158 77.1781C172.12 79.5683 171.084 82.1833 170.085 85.0314L169.577 84.8535C170.581 81.9932 171.622 79.3666 172.665 76.9643C172.135 76.767 170.924 76.0444 168.783 73.3918C165.744 69.6259 167.816 68.2944 167.816 68.2944C167.816 68.2944 170.765 68.5082 171.496 71.642C171.784 72.8713 172.533 75.4653 172.849 76.546C173.69 74.6305 174.532 72.8614 175.355 71.2387C174.927 71.1442 173.539 70.579 170.774 67.1535Z" fill="url(#paint3_linear_188_5300)"/>
<path d="M14.4569 104.343C9.02904 103.991 6.08087 98.7144 6.08087 98.7144C6.08087 98.7144 11.9258 98.9874 15.0746 100.767C16.4547 101.547 19.6918 103.15 20.4946 103.546C19.9333 102.032 19.446 100.606 19.025 99.2785C18.6813 99.3918 17.2431 99.615 13.0408 97.7348C8.07597 95.5132 7.15163 89.5401 7.15163 89.5401C7.15163 89.5401 12.5352 91.833 14.8657 94.5983C15.8784 95.8 18.3178 98.3934 18.9581 99.0719C18.6272 98.0205 18.3399 97.0343 18.0868 96.1116C17.5912 95.6309 16.6569 94.3308 15.5569 90.8456C13.9198 85.6587 17.7702 81 17.7702 81C17.7702 81 19.6322 86.5471 19.1134 90.1263C18.9161 91.4882 18.6476 94.3756 18.5288 95.6988C19.0194 97.5133 19.6576 99.6012 20.4769 101.922C20.3952 101.032 20.3687 99.8504 20.462 98.2625C20.7819 92.8325 26.0407 89.8533 26.0407 89.8533C26.0407 89.8533 25.8025 95.6999 24.0417 98.8586C23.287 100.213 21.7588 103.342 21.3256 104.232C21.8505 105.607 22.4372 107.053 23.092 108.562C23.1555 107.758 23.4461 106.401 24.3511 104.177C26.1755 99.6946 28.3441 100.864 28.3441 100.864C28.3441 100.864 29.5839 103.548 27.196 105.705C26.2125 106.593 24.1561 108.658 23.4461 109.375C24.5025 111.757 25.7246 114.29 27.144 116.954L26.67 117.207C25.2451 114.531 24.0168 111.987 22.956 109.592C22.4516 109.849 21.1002 110.251 17.6984 110.03C12.869 109.716 13.2927 107.289 13.2927 107.289C13.2927 107.289 15.4469 105.264 18.2481 106.848C19.3471 107.469 21.7637 108.674 22.7726 109.173C21.9328 107.257 21.2007 105.44 20.5642 103.735C20.2057 103.989 18.8493 104.628 14.4569 104.343Z" fill="url(#paint4_linear_188_5300)"/>
<path d="M23.4842 116.142C24.3765 110.776 19.909 106.705 19.909 106.705C19.909 106.705 18.8448 112.459 19.8615 115.929C20.3073 117.451 21.1317 120.968 21.3344 121.84C19.9874 120.948 18.71 120.149 17.5133 119.437C17.7017 119.128 18.2465 117.779 17.3713 113.259C16.3376 107.919 10.7313 105.659 10.7313 105.659C10.7313 105.659 11.7391 111.424 13.9016 114.322C14.8414 115.582 16.8116 118.547 17.3271 119.325C16.3785 118.764 15.484 118.259 14.643 117.803C14.2878 117.211 13.2342 116.006 10.091 114.141C5.41234 111.367 0 114.057 0 114.057C0 114.057 4.97807 117.132 8.58151 117.442C9.95228 117.559 12.8253 117.955 14.1408 118.14C15.7956 119.031 17.684 120.127 19.7576 121.453C18.9095 121.17 17.7647 120.876 16.1972 120.606C10.8368 119.682 6.73946 124.125 6.73946 124.125C6.73946 124.125 12.4872 125.223 15.9635 124.227C17.4542 123.8 20.8488 123.024 21.8135 122.805C23.0334 123.629 24.3075 124.529 25.6285 125.51C24.8307 125.389 23.4428 125.363 21.0714 125.739C16.2917 126.496 16.937 128.873 16.937 128.873C16.937 128.873 19.2686 130.691 21.9118 128.856C23.0008 128.101 25.4799 126.568 26.339 126.04C28.4187 127.61 30.6066 129.377 32.8785 131.365L33.2326 130.961C30.9513 128.964 28.7529 127.19 26.6628 125.611C27.028 125.179 27.7264 123.954 28.2855 120.591C29.0795 115.817 26.6197 115.677 26.6197 115.677C26.6197 115.677 24.1577 117.314 25.0622 120.402C25.4169 121.614 26.0407 124.241 26.297 125.337C24.6224 124.084 23.0196 122.957 21.5041 121.95C21.8317 121.659 22.7621 120.484 23.4842 116.142Z" fill="url(#paint5_linear_188_5300)"/>
<path d="M35.4797 134.2C30.2309 135.627 25.7313 131.591 25.7313 131.591C25.7313 131.591 31.3492 129.954 34.9045 130.617C36.4632 130.908 40.045 131.375 40.9329 131.489C39.9108 130.239 38.9875 129.048 38.1593 127.928C37.8709 128.147 36.583 128.824 31.9978 128.407C26.581 127.915 23.7704 122.564 23.7704 122.564C23.7704 122.564 29.6066 122.988 32.7078 124.848C34.0559 125.657 37.2035 127.32 38.0295 127.754C37.3759 126.866 36.7842 126.027 36.2455 125.236C35.6206 124.942 34.3156 124.015 32.1453 121.075C28.9148 116.698 31.048 111.044 31.048 111.044C31.048 111.044 34.6078 115.688 35.2775 119.242C35.5322 120.594 36.2145 123.413 36.5306 124.703C37.5831 126.26 38.8632 128.029 40.3909 129.959C40.0252 129.143 39.6169 128.034 39.1909 126.502C37.7334 121.261 41.7423 116.738 41.7423 116.738C41.7423 116.738 43.4126 122.346 42.7706 125.905C42.4954 127.431 42.0639 130.887 41.9429 131.869C42.8855 133 43.9093 134.177 45.0176 135.392C44.817 134.611 44.6518 133.233 44.7872 130.835C45.0601 126.004 47.4906 126.407 47.4906 126.407C47.4906 126.407 49.5332 128.544 47.9735 131.359C47.3309 132.518 46.0552 135.138 45.616 136.046C47.3873 137.958 49.3647 139.957 51.5709 142.018L51.204 142.41C48.9884 140.341 47.0022 138.332 45.222 136.411C44.8281 136.817 43.6794 137.635 40.3898 138.529C35.7195 139.798 35.3338 137.365 35.3338 137.365C35.3338 137.365 36.7151 134.751 39.8782 135.341C41.1191 135.573 43.796 135.929 44.9121 136.074C43.4965 134.534 42.2147 133.052 41.0606 131.645C40.8036 132.002 39.7274 133.046 35.4797 134.2Z" fill="url(#paint6_linear_188_5300)"/>
<path d="M48.0006 138.432C46.1215 133.327 40.2251 131.999 40.2251 131.999C40.2251 131.999 42.1468 137.526 44.7474 140.039C45.8872 141.141 48.3437 143.79 48.9514 144.447C47.3398 144.339 45.8347 144.276 44.4419 144.25C44.4529 143.888 44.2584 142.446 41.2622 138.951C37.7217 134.821 31.7326 135.631 31.7326 135.631C31.7326 135.631 35.4598 140.142 38.7732 141.592C40.213 142.222 43.3921 143.824 44.2247 144.245C43.1225 144.227 42.0954 144.231 41.139 144.25C40.5373 143.912 39.0257 143.385 35.3714 143.32C29.9331 143.223 26.5595 148.238 26.5595 148.238C26.5595 148.238 32.4072 148.448 35.6918 146.934C36.9416 146.358 39.634 145.281 40.8688 144.791C42.7479 144.746 44.9314 144.765 47.3889 144.892C46.5121 145.066 45.3717 145.376 43.8755 145.917C38.7599 147.765 37.3969 153.653 37.3969 153.653C37.3969 153.653 42.9352 151.765 45.464 149.179C46.548 148.071 49.1144 145.717 49.8448 145.049C51.3128 145.162 52.8654 145.314 54.4986 145.513C53.745 145.803 52.5267 146.467 50.6515 147.966C46.8718 150.988 48.6089 152.735 48.6089 152.735C48.6089 152.735 51.5344 153.162 52.9239 150.259C53.4963 149.064 54.8931 146.506 55.3782 145.622C57.9622 145.958 60.738 146.411 63.6956 147.015L63.8033 146.488C60.833 145.881 58.0445 145.427 55.4478 145.089C55.5511 144.533 55.5522 143.122 54.3743 139.923C52.7024 135.382 50.4957 136.477 50.4957 136.477C50.4957 136.477 49.1658 139.118 51.4797 141.354C52.3874 142.231 54.2289 144.206 54.9942 145.031C52.9184 144.77 50.9681 144.584 49.1525 144.458C49.294 144.044 49.521 142.562 48.0006 138.432Z" fill="url(#paint7_linear_188_5300)"/>
<path d="M135.5 13H56.5001L17 81.4997L56.5001 150H135.5L175 81.4997L135.5 13Z" stroke="url(#paint8_linear_188_5300)" stroke-width="2.715" stroke-miterlimit="10"/>
<path d="M96.0003 2L27 41.7496V121.25L96.0003 161L165 121.25V41.7496L96.0003 2Z" stroke="url(#paint9_linear_188_5300)" stroke-width="2.715" stroke-miterlimit="10"/>
<defs>
<linearGradient id="paint0_linear_188_5300" x1="155.095" y1="44.3002" x2="146.409" y2="-1.08244" gradientUnits="userSpaceOnUse">
<stop offset="0.000165344" stop-color="#B5774D"/>
<stop offset="0.376" stop-color="#F8CE86"/>
<stop offset="1" stop-color="#8A5F41"/>
</linearGradient>
<linearGradient id="paint1_linear_188_5300" x1="182.446" y1="49.8587" x2="158.954" y2="10.0664" gradientUnits="userSpaceOnUse">
<stop offset="0.000165344" stop-color="#B5774D"/>
<stop offset="0.376" stop-color="#F8CE86"/>
<stop offset="1" stop-color="#8A5F41"/>
</linearGradient>
<linearGradient id="paint2_linear_188_5300" x1="162.534" y1="75.2297" x2="169.03" y2="29.4811" gradientUnits="userSpaceOnUse">
<stop offset="0.000165344" stop-color="#B5774D"/>
<stop offset="0.376" stop-color="#F8CE86"/>
<stop offset="1" stop-color="#8A5F41"/>
</linearGradient>
<linearGradient id="paint3_linear_188_5300" x1="179.094" y1="89.3654" x2="178.362" y2="43.1615" gradientUnits="userSpaceOnUse">
<stop offset="0.000165344" stop-color="#B5774D"/>
<stop offset="0.376" stop-color="#F8CE86"/>
<stop offset="1" stop-color="#8A5F41"/>
</linearGradient>
<linearGradient id="paint4_linear_188_5300" x1="36.4318" y1="113.258" x2="1.93697" y2="82.5097" gradientUnits="userSpaceOnUse">
<stop offset="0.000165344" stop-color="#B5774D"/>
<stop offset="0.376" stop-color="#F8CE86"/>
<stop offset="1" stop-color="#8A5F41"/>
</linearGradient>
<linearGradient id="paint5_linear_188_5300" x1="27.1661" y1="139.575" x2="5.07296" y2="98.99" gradientUnits="userSpaceOnUse">
<stop offset="0.000165344" stop-color="#B5774D"/>
<stop offset="0.376" stop-color="#F8CE86"/>
<stop offset="1" stop-color="#8A5F41"/>
</linearGradient>
<linearGradient id="paint6_linear_188_5300" x1="59.1611" y1="135.503" x2="16.5638" y2="117.598" gradientUnits="userSpaceOnUse">
<stop offset="0.000165344" stop-color="#B5774D"/>
<stop offset="0.376" stop-color="#F8CE86"/>
<stop offset="1" stop-color="#8A5F41"/>
</linearGradient>
<linearGradient id="paint7_linear_188_5300" x1="62.7831" y1="156.969" x2="23.5048" y2="132.629" gradientUnits="userSpaceOnUse">
<stop offset="0.000165344" stop-color="#B5774D"/>
<stop offset="0.376" stop-color="#F8CE86"/>
<stop offset="1" stop-color="#8A5F41"/>
</linearGradient>
<linearGradient id="paint8_linear_188_5300" x1="41.4541" y1="136.113" x2="150.68" y2="27.0208" gradientUnits="userSpaceOnUse">
<stop offset="0.000165344" stop-color="#B5774D"/>
<stop offset="0.376" stop-color="#F8CE86"/>
<stop offset="1" stop-color="#8A5F41"/>
</linearGradient>
<linearGradient id="paint9_linear_188_5300" x1="40.9886" y1="136.391" x2="150.771" y2="26.3683" gradientUnits="userSpaceOnUse">
<stop offset="0.000165344" stop-color="#B5774D"/>
<stop offset="0.376" stop-color="#F8CE86"/>
<stop offset="1" stop-color="#8A5F41"/>
</linearGradient>
</defs>
</svg>
