<svg width="203" height="216" viewBox="0 0 203 216" fill="none" xmlns="http://www.w3.org/2000/svg">
<path d="M85.16 52.935C81.308 61.599 70.883 58.892 66.978 64.756C67.916 53.111 82.602 52.324 82.602 52.324L85.16 52.935Z" fill="#898A32"/>
<path d="M122.481 60.695C118.269 60.963 113.303 59.405 107.543 57.598C95.0209 53.672 79.4399 48.784 61.4469 59.808C61.1349 60 60.7199 59.904 60.5269 59.587C60.3339 59.272 60.4339 58.859 60.7489 58.667C79.2599 47.324 95.1629 52.313 107.943 56.321C116.366 58.963 123.02 61.052 127.698 57.459C127.987 57.235 128.409 57.289 128.637 57.582C128.863 57.876 128.807 58.296 128.513 58.52C126.71 59.907 124.699 60.554 122.481 60.695Z" fill="#898A32"/>
<path d="M116.922 59.522C112.459 69.552 100.39 66.418 95.87 73.209C96.959 59.727 113.96 58.813 113.96 58.813L116.922 59.522Z" fill="#898A32"/>
<path d="M100.291 54.643C96.438 63.307 86.012 60.599 82.105 66.464C83.047 54.818 97.732 54.032 97.732 54.032L100.291 54.643Z" fill="#898A32"/>
<path d="M106.953 56.713C98.433 57.594 97.544 43.02 90.778 42.86C105.144 42.039 107.593 56.337 109.994 57.661L106.953 56.713Z" fill="#898A32"/>
<path d="M89.0359 52.61C80.5179 53.493 79.6299 38.92 72.8629 38.757C87.2299 37.936 89.6759 52.235 92.0789 53.56L89.0359 52.61Z" fill="#898A32"/>
<path d="M75.36 53.433C68.265 58.228 60.606 45.8 54.563 48.849C66.842 41.347 75.746 52.799 78.489 52.833L75.36 53.433Z" fill="#898A32"/>
<path d="M63.41 58.176C60.466 66.219 46.98 60.622 43.866 66.631C49.431 53.362 63.354 57.437 65.599 55.86L63.41 58.176Z" fill="#898A32"/>
<path d="M169.833 96.365C162.661 102.568 168.28 111.758 163.804 117.197C174.674 112.916 171.161 98.635 171.161 98.635L169.833 96.365Z" fill="#898A32"/>
<path d="M151.564 62.908C152.532 67.016 155.464 71.315 158.867 76.301C166.263 87.143 175.467 100.631 170.145 121.05C170.051 121.404 170.264 121.773 170.623 121.866C170.98 121.959 171.346 121.743 171.438 121.387C176.915 100.379 167.52 86.611 159.972 75.547C154.995 68.255 151.064 62.495 153.143 56.975C153.274 56.633 153.1 56.246 152.752 56.113C152.405 55.982 152.02 56.157 151.89 56.504C151.089 58.632 151.054 60.745 151.564 62.908Z" fill="#898A32"/>
<path d="M154.301 67.886C146.001 75.07 152.506 85.708 147.322 92.006C159.906 87.047 155.84 70.514 155.84 70.514L154.301 67.886Z" fill="#898A32"/>
<path d="M163.801 82.382C156.63 88.587 162.251 97.776 157.775 103.218C168.644 98.933 165.129 84.654 165.129 84.654L163.801 82.382Z" fill="#898A32"/>
<path d="M159.886 76.609C161.518 85.017 175.722 81.634 177.84 88.062C174.452 74.077 160.06 75.888 158.095 73.975L159.886 76.609Z" fill="#898A32"/>
<path d="M169.018 92.562C170.648 100.968 184.851 97.585 186.972 104.012C183.583 90.026 169.191 91.84 167.225 89.926L169.018 92.562Z" fill="#898A32"/>
<path d="M172.204 105.886C169.678 114.068 183.794 117.786 182.633 124.454C186.243 110.525 172.698 105.333 171.869 102.718L172.204 105.886Z" fill="#898A32"/>
<path d="M171.137 118.699C164.296 123.853 173.57 135.131 168.725 139.856C179.804 130.676 171.86 118.538 172.716 115.931L171.137 118.699Z" fill="#898A32"/>
<path d="M147.162 71.125C168.364 61.734 181.586 56.38 191.898 64.338" stroke="#994F13" stroke-miterlimit="10" stroke-linecap="round"/>
<path d="M179.281 60.383C179.281 60.383 185.213 56.056 199.227 58.123" stroke="#994F13" stroke-miterlimit="10" stroke-linecap="round"/>
<path d="M170.566 61.968C170.566 61.968 179.899 72.587 190.914 71.221" stroke="#994F13" stroke-miterlimit="10" stroke-linecap="round"/>
<path d="M186.69 57.94C186.69 57.94 188.211 54.02 194.544 53.312" stroke="#994F13" stroke-miterlimit="10" stroke-linecap="round"/>
<path d="M180.129 69.138C180.129 69.138 182.366 67.956 188.054 68.894" stroke="#994F13" stroke-miterlimit="10" stroke-linecap="round"/>
<path d="M185.491 71.006C185.491 71.006 186.454 74.852 191.951 74.801" stroke="#994F13" stroke-miterlimit="10" stroke-linecap="round"/>
<path d="M175.074 60.947C175.074 60.947 175.906 55.149 181.369 52.79" stroke="#994F13" stroke-miterlimit="10" stroke-linecap="round"/>
<path d="M193.065 57.578C193.065 57.578 195.048 62.961 199.442 62.509" stroke="#994F13" stroke-miterlimit="10" stroke-linecap="round"/>
<path d="M173.685 61.211C173.685 61.211 176.107 64.826 184.078 64.255" stroke="#994F13" stroke-miterlimit="10" stroke-linecap="round"/>
<path d="M195.048 75.854C194.723 77.207 193.362 78.04 192.011 77.714C190.66 77.39 189.826 76.031 190.151 74.678C190.475 73.326 191.836 72.494 193.187 72.818C194.539 73.142 195.372 74.502 195.048 75.854Z" fill="#DA7F29"/>
<path d="M190.837 75.342C191.085 74.307 192.126 73.67 193.16 73.918C193.627 74.03 194.006 74.309 194.267 74.67C194.066 74.054 193.565 73.551 192.888 73.389C191.855 73.141 190.814 73.778 190.566 74.812C190.429 75.38 190.567 75.945 190.883 76.384C190.778 76.058 190.751 75.701 190.837 75.342Z" fill="white"/>
<path d="M202.384 63.502C202.059 64.855 200.698 65.687 199.347 65.362C197.995 65.038 197.162 63.678 197.487 62.325C197.811 60.973 199.172 60.141 200.523 60.465C201.874 60.79 202.708 62.149 202.384 63.502Z" fill="#DA7F29"/>
<path d="M198.173 62.99C198.421 61.955 199.462 61.318 200.496 61.566C200.963 61.678 201.343 61.956 201.603 62.318C201.402 61.702 200.901 61.199 200.224 61.037C199.191 60.789 198.15 61.426 197.902 62.461C197.765 63.028 197.903 63.593 198.219 64.032C198.114 63.706 198.087 63.349 198.173 62.99Z" fill="white"/>
<path d="M200.819 57.947C200.494 59.3 199.134 60.132 197.782 59.808C196.43 59.483 195.597 58.124 195.923 56.771C196.247 55.419 197.607 54.586 198.958 54.911C200.31 55.236 201.143 56.595 200.819 57.947Z" fill="#DA7F29"/>
<path d="M196.608 57.436C196.857 56.401 197.897 55.764 198.932 56.012C199.399 56.124 199.777 56.403 200.037 56.764C199.837 56.147 199.336 55.645 198.66 55.483C197.626 55.235 196.585 55.872 196.337 56.907C196.2 57.475 196.338 58.04 196.654 58.478C196.549 58.152 196.522 57.794 196.608 57.436Z" fill="white"/>
<path d="M196.563 53.796C196.239 55.149 194.878 55.981 193.526 55.657C192.174 55.333 191.341 53.974 191.666 52.621C191.991 51.268 193.351 50.436 194.702 50.761C196.053 51.085 196.887 52.444 196.563 53.796Z" fill="#DA7F29"/>
<path d="M192.351 53.285C192.6 52.25 193.641 51.613 194.675 51.861C195.142 51.973 195.522 52.251 195.782 52.613C195.582 51.996 195.08 51.494 194.404 51.332C193.37 51.083 192.329 51.721 192.081 52.755C191.944 53.323 192.083 53.888 192.398 54.327C192.292 54.001 192.266 53.643 192.351 53.285Z" fill="white"/>
<path d="M183.834 53.661C183.509 55.014 182.148 55.846 180.797 55.522C179.447 55.197 178.613 53.838 178.937 52.486C179.261 51.133 180.622 50.301 181.973 50.625C183.326 50.95 184.159 52.309 183.834 53.661Z" fill="#DA7F29"/>
<path d="M179.623 53.149C179.871 52.114 180.912 51.477 181.946 51.725C182.414 51.837 182.793 52.116 183.053 52.477C182.852 51.86 182.352 51.358 181.675 51.196C180.641 50.947 179.601 51.585 179.352 52.62C179.216 53.188 179.353 53.753 179.669 54.191C179.564 53.865 179.538 53.508 179.623 53.149Z" fill="white"/>
<path d="M193.297 64.627C192.972 65.98 191.612 66.812 190.26 66.488C188.909 66.163 188.075 64.804 188.4 63.451C188.724 62.099 190.085 61.266 191.435 61.591C192.788 61.916 193.622 63.274 193.297 64.627Z" fill="#DA7F29"/>
<path d="M189.086 64.115C189.334 63.08 190.375 62.443 191.409 62.691C191.876 62.803 192.255 63.082 192.516 63.443C192.316 62.826 191.815 62.324 191.138 62.162C190.104 61.914 189.064 62.551 188.815 63.586C188.679 64.154 188.817 64.719 189.133 65.158C189.027 64.832 189 64.474 189.086 64.115Z" fill="white"/>
<path d="M185.404 64.262C185.08 65.615 183.72 66.448 182.367 66.123C181.016 65.799 180.183 64.439 180.508 63.087C180.833 61.734 182.192 60.902 183.544 61.226C184.895 61.551 185.729 62.91 185.404 64.262Z" fill="#DA7F29"/>
<path d="M181.193 63.75C181.442 62.715 182.482 62.078 183.517 62.326C183.984 62.438 184.364 62.717 184.623 63.078C184.423 62.462 183.922 61.959 183.246 61.797C182.212 61.549 181.171 62.186 180.923 63.221C180.786 63.789 180.923 64.354 181.239 64.793C181.134 64.466 181.107 64.108 181.193 63.75Z" fill="white"/>
<path d="M190.195 69.531C189.871 70.883 188.511 71.716 187.159 71.392C185.807 71.067 184.973 69.708 185.298 68.355C185.624 67.003 186.984 66.17 188.334 66.495C189.686 66.82 190.52 68.179 190.195 69.531Z" fill="#DA7F29"/>
<path d="M185.985 69.02C186.234 67.985 187.274 67.348 188.308 67.596C188.775 67.708 189.154 67.987 189.414 68.348C189.214 67.732 188.713 67.229 188.037 67.067C187.003 66.819 185.962 67.456 185.713 68.491C185.577 69.059 185.715 69.624 186.031 70.063C185.925 69.736 185.898 69.378 185.985 69.02Z" fill="white"/>
<path d="M192.289 71.563C192.115 72.29 191.385 72.737 190.658 72.563C189.932 72.389 189.485 71.659 189.66 70.933C189.834 70.207 190.563 69.76 191.289 69.934C192.015 70.107 192.463 70.837 192.289 71.563Z" fill="#DA7F29"/>
<path d="M190.028 71.289C190.161 70.733 190.72 70.392 191.276 70.525C191.527 70.585 191.729 70.734 191.87 70.928C191.763 70.597 191.493 70.327 191.13 70.24C190.574 70.107 190.017 70.448 189.883 71.004C189.809 71.31 189.883 71.612 190.054 71.849C189.996 71.673 189.981 71.482 190.028 71.289Z" fill="white"/>
<path d="M179.742 64.754C179.527 65.648 178.629 66.199 177.734 65.985C176.84 65.771 176.291 64.871 176.504 63.978C176.718 63.084 177.616 62.533 178.511 62.748C179.406 62.962 179.955 63.861 179.742 64.754Z" fill="#DA7F29"/>
<path d="M176.958 64.416C177.122 63.732 177.811 63.311 178.494 63.475C178.803 63.549 179.053 63.733 179.225 63.972C179.093 63.565 178.76 63.232 178.315 63.125C177.631 62.961 176.942 63.381 176.779 64.066C176.688 64.442 176.78 64.815 176.989 65.106C176.917 64.889 176.9 64.653 176.958 64.416Z" fill="white"/>
<path d="M190.219 54.986C190.004 55.881 189.106 56.431 188.211 56.216C187.318 56.002 186.768 55.103 186.982 54.209C187.196 53.315 188.095 52.764 188.989 52.979C189.883 53.193 190.433 54.092 190.219 54.986Z" fill="#DA7F29"/>
<path d="M187.435 54.647C187.599 53.963 188.288 53.543 188.971 53.707C189.28 53.781 189.53 53.964 189.703 54.204C189.57 53.796 189.239 53.464 188.792 53.357C188.108 53.193 187.419 53.614 187.256 54.298C187.165 54.674 187.257 55.047 187.466 55.338C187.395 55.121 187.377 54.885 187.435 54.647Z" fill="white"/>
<path d="M188.028 58.212C187.814 59.107 186.916 59.657 186.02 59.443C185.127 59.228 184.577 58.329 184.791 57.435C185.006 56.542 185.904 55.99 186.797 56.205C187.693 56.42 188.244 57.319 188.028 58.212Z" fill="#DA7F29"/>
<path d="M185.244 57.874C185.409 57.19 186.097 56.77 186.782 56.934C187.09 57.008 187.341 57.191 187.512 57.431C187.38 57.023 187.048 56.691 186.602 56.583C185.917 56.419 185.23 56.84 185.066 57.524C184.975 57.901 185.066 58.274 185.276 58.564C185.205 58.347 185.188 58.111 185.244 57.874Z" fill="white"/>
<path d="M175.45 65.436C175.236 66.33 174.338 66.881 173.443 66.666C172.548 66.452 171.998 65.553 172.214 64.658C172.428 63.765 173.326 63.214 174.22 63.429C175.115 63.643 175.665 64.542 175.45 65.436Z" fill="#DA7F29"/>
<path d="M172.666 65.097C172.83 64.413 173.518 63.992 174.202 64.156C174.51 64.23 174.761 64.414 174.932 64.653C174.801 64.245 174.468 63.913 174.023 63.806C173.339 63.641 172.65 64.062 172.486 64.747C172.395 65.123 172.488 65.496 172.697 65.787C172.626 65.571 172.609 65.335 172.666 65.097Z" fill="white"/>
<path d="M184.721 71.137C184.506 72.031 183.608 72.582 182.713 72.367C181.819 72.152 181.269 71.253 181.484 70.359C181.699 69.465 182.597 68.914 183.491 69.129C184.384 69.345 184.935 70.243 184.721 71.137Z" fill="#DA7F29"/>
<path d="M181.937 70.798C182.101 70.114 182.79 69.694 183.473 69.858C183.782 69.932 184.032 70.116 184.205 70.355C184.073 69.947 183.741 69.615 183.294 69.508C182.611 69.344 181.923 69.764 181.758 70.448C181.668 70.824 181.759 71.197 181.969 71.488C181.898 71.273 181.879 71.036 181.937 70.798Z" fill="white"/>
<path d="M196.553 61.27C196.339 62.164 195.441 62.715 194.545 62.5C193.651 62.286 193.102 61.386 193.316 60.492C193.531 59.599 194.429 59.048 195.323 59.262C196.217 59.477 196.767 60.376 196.553 61.27Z" fill="#DA7F29"/>
<path d="M193.769 60.931C193.934 60.247 194.622 59.827 195.305 59.991C195.615 60.065 195.864 60.249 196.036 60.488C195.905 60.08 195.572 59.748 195.127 59.64C194.442 59.476 193.754 59.897 193.59 60.581C193.499 60.957 193.591 61.33 193.8 61.621C193.73 61.405 193.712 61.169 193.769 60.931Z" fill="white"/>
<path d="M179.548 57.612C179.278 58.735 178.15 59.428 177.025 59.159C175.902 58.889 175.21 57.759 175.48 56.635C175.75 55.512 176.878 54.82 178.001 55.089C179.126 55.359 179.818 56.489 179.548 57.612Z" fill="#DA7F29"/>
<path d="M176.048 57.187C176.255 56.327 177.12 55.798 177.98 56.004C178.367 56.097 178.682 56.328 178.899 56.628C178.733 56.116 178.315 55.698 177.756 55.564C176.897 55.358 176.03 55.886 175.824 56.746C175.711 57.219 175.826 57.687 176.089 58.053C175.999 57.782 175.978 57.485 176.048 57.187Z" fill="white"/>
<path d="M125.225 54.473C125.225 54.473 110.809 49.74 105.721 36.513" stroke="#42442E" stroke-miterlimit="10"/>
<path d="M116.419 49.786C116.419 49.786 107.053 43.339 99.5779 51.15" stroke="#42442E" stroke-miterlimit="10"/>
<path d="M107.9 47.296C107.9 47.296 105.852 49.444 106.933 52.677" stroke="#42442E" stroke-miterlimit="10"/>
<path d="M119.087 51.53C119.087 51.53 114.787 49.377 115.566 43.827" stroke="#42442E" stroke-miterlimit="10"/>
<path d="M107.836 39.94C107.836 39.94 113.539 39.779 109.905 35.067C106.269 30.354 101.448 32.548 101.448 32.548C101.448 32.548 99.9279 37.825 103.202 41.034C106.476 44.244 107.836 39.94 107.836 39.94Z" fill="#42442E"/>
<path d="M107.593 39.36C107.593 39.36 107.404 35.16 102.788 33.502C108.824 34.909 107.593 39.36 107.593 39.36Z" fill="white"/>
<path d="M102.115 49.089C102.115 49.089 100.969 45.107 98.3119 48.514C95.6559 51.922 98.0699 54.917 98.0699 54.917C98.0699 54.917 102.056 55.033 103.721 52.15C105.386 49.268 102.115 49.089 102.115 49.089Z" fill="#42442E"/>
<path d="M101.75 49.365C101.75 49.365 98.829 50.257 98.498 53.803C98.397 49.304 101.75 49.365 101.75 49.365Z" fill="white"/>
<path d="M106.739 50.982C106.739 50.982 104.501 49.651 104.751 52.356C105.001 55.061 107.397 55.393 107.397 55.393C107.397 55.393 109.273 53.73 108.793 51.693C108.315 49.655 106.739 50.982 106.739 50.982Z" fill="#42442E"/>
<path d="M106.691 51.265C106.691 51.265 105.738 52.932 107.112 54.698C105.129 52.68 106.691 51.265 106.691 51.265Z" fill="white"/>
<path d="M115.242 45.13C115.242 45.13 118.221 46.65 117.677 43.206C117.132 39.762 114.035 39.535 114.035 39.535C114.035 39.535 111.769 41.821 112.554 44.391C113.333 46.961 115.242 45.13 115.242 45.13Z" fill="#42442E"/>
<path d="M115.28 44.763C115.28 44.763 116.363 42.55 114.456 40.402C117.164 42.821 115.28 44.763 115.28 44.763Z" fill="white"/>
<path d="M152.92 60.106C152.92 60.106 161.743 40.509 179.171 46.045" stroke="#42442E" stroke-miterlimit="10"/>
<path d="M161.234 43.434C161.234 43.434 166.937 43.273 163.303 38.561C159.667 33.848 154.846 36.042 154.846 36.042C154.846 36.042 153.325 41.319 156.599 44.528C159.873 47.737 161.234 43.434 161.234 43.434Z" fill="#42442E"/>
<path d="M177.298 45.554C177.298 45.554 173.987 50.2 179.937 50.144C185.889 50.088 187.048 44.919 187.048 44.919C187.048 44.919 183.756 40.523 179.222 41.198C174.688 41.873 177.298 45.554 177.298 45.554Z" fill="#42442E"/>
<path d="M176.622 52.854C176.622 52.854 172.652 52.415 174.716 56.033C176.782 59.652 180.337 58.597 180.337 58.597C180.337 58.597 181.901 55.085 179.941 52.544C177.983 50.001 176.622 52.854 176.622 52.854Z" fill="#42442E"/>
<path d="M163.42 47.932C163.42 47.932 171.779 45.442 177.25 53.489" stroke="#42442E" stroke-miterlimit="10"/>
<path d="M159.43 51.078C159.43 51.078 163.776 45.196 159.661 41.067" stroke="#42442E" stroke-miterlimit="10"/>
<path d="M160.99 42.853C160.99 42.853 160.802 38.652 156.185 36.995C162.221 38.402 160.99 42.853 160.99 42.853Z" fill="white"/>
<path d="M178.088 45.732C178.088 45.732 181.026 43.592 185.645 45.239C180.254 42.119 178.088 45.732 178.088 45.732Z" fill="white"/>
<path d="M176.664 53.363C176.664 53.363 178.882 54.267 179.56 57.428C179.439 53.325 176.664 53.363 176.664 53.363Z" fill="white"/>
<path d="M138.696 62.113C134.88 50.873 144.316 12.965 141.289 2.908" stroke="#ADAD40" stroke-miterlimit="10" stroke-linecap="round"/>
<path d="M141.967 6.935C141.967 6.935 139.247 4.066 138.511 0.908005C137.477 6.36 141.967 6.935 141.967 6.935Z" fill="#ADAD40"/>
<path d="M142.075 8.937C142.075 8.937 138.042 6.663 136.126 3.377C136.846 9.842 142.075 8.937 142.075 8.937Z" fill="#ADAD40"/>
<path d="M141.826 8.829C141.826 8.829 145.514 6.028 146.966 2.515C147.129 9.013 141.826 8.829 141.826 8.829Z" fill="#ADAD40"/>
<path d="M142.048 11.666C142.048 11.666 137.083 8.866 134.728 4.82401C135.616 12.779 142.048 11.666 142.048 11.666Z" fill="#ADAD40"/>
<path d="M141.742 11.533C141.742 11.533 146.28 8.084 148.066 3.762C148.268 11.761 141.742 11.533 141.742 11.533Z" fill="#ADAD40"/>
<path d="M142.196 15.227C142.196 15.227 136.732 12.147 134.14 7.69901C135.115 16.45 142.196 15.227 142.196 15.227Z" fill="#ADAD40"/>
<path d="M141.857 15.081C141.857 15.081 146.85 11.287 148.817 6.53C149.038 15.333 141.857 15.081 141.857 15.081Z" fill="#ADAD40"/>
<path d="M142.222 17.609C142.222 17.609 136.385 15.314 133.202 11.265C135.379 19.797 142.222 17.609 142.222 17.609Z" fill="#ADAD40"/>
<path d="M141.198 17.649C141.198 17.649 146.823 14.876 149.657 10.578C148.199 19.264 141.198 17.649 141.198 17.649Z" fill="#ADAD40"/>
<path d="M141.587 20.767C141.587 20.767 134.898 18.134 131.249 13.493C133.741 23.275 141.587 20.767 141.587 20.767Z" fill="#ADAD40"/>
<path d="M141.007 20.943C141.007 20.943 147.692 18.298 151.332 13.655C148.854 23.439 141.007 20.943 141.007 20.943Z" fill="#ADAD40"/>
<path d="M140.928 24.616C140.928 24.616 133.407 21.657 129.308 16.439C132.11 27.437 140.928 24.616 140.928 24.616Z" fill="#ADAD40"/>
<path d="M140.276 24.813C140.276 24.813 147.793 21.843 151.888 16.621C149.101 27.621 140.276 24.813 140.276 24.813Z" fill="#ADAD40"/>
<path d="M140.558 29.28C140.558 29.28 132.414 26.074 127.977 20.428C131.01 32.333 140.558 29.28 140.558 29.28Z" fill="#ADAD40"/>
<path d="M139.765 29.361C139.765 29.361 147.964 26.314 152.512 20.754C149.25 32.6 139.765 29.361 139.765 29.361Z" fill="#ADAD40"/>
<path d="M140.047 33.077C140.047 33.077 130.864 29.464 125.857 23.095C129.28 36.523 140.047 33.077 140.047 33.077Z" fill="#ADAD40"/>
<path d="M139.266 33.128C139.266 33.128 148.693 30.213 154.162 24.235C149.746 37.37 139.266 33.128 139.266 33.128Z" fill="#ADAD40"/>
<path d="M139.316 38.286C139.316 38.286 129.652 34.482 124.382 27.779C127.983 41.912 139.316 38.286 139.316 38.286Z" fill="#ADAD40"/>
<path d="M138.494 38.338C138.494 38.338 148.416 35.268 154.172 28.978C149.525 42.804 138.494 38.338 138.494 38.338Z" fill="#ADAD40"/>
<path d="M139.154 42.436C139.154 42.436 128.832 38.373 123.203 31.216C127.048 46.31 139.154 42.436 139.154 42.436Z" fill="#ADAD40"/>
<path d="M137.886 42.121C137.886 42.121 148.837 40.358 155.868 34.573C148.881 48.492 137.886 42.121 137.886 42.121Z" fill="#ADAD40"/>
<path d="M138.477 48.48C138.477 48.48 127.409 44.123 121.371 36.446C125.495 52.633 138.477 48.48 138.477 48.48Z" fill="#ADAD40"/>
<path d="M137.12 48.142C137.12 48.142 148.862 46.252 156.403 40.045C148.911 54.975 137.12 48.142 137.12 48.142Z" fill="#ADAD40"/>
<path d="M141.967 6.935C141.967 6.935 143.136 3.162 142.4 0C145.739 4.433 141.967 6.935 141.967 6.935Z" fill="#ADAD40"/>
<path d="M135.442 53.441C135.466 53.59 135.422 53.747 135.306 53.862C135.118 54.048 134.815 54.047 134.627 53.857C131.898 51.101 129.276 43.436 126.743 36.023C124.566 29.659 122.318 23.081 120.336 20.936C120.157 20.741 120.17 20.438 120.363 20.258C120.557 20.079 120.859 20.092 121.039 20.286C123.158 22.579 125.34 28.958 127.648 35.712C130.148 43.023 132.732 50.584 135.308 53.185C135.381 53.256 135.425 53.348 135.442 53.441Z" fill="#706E19"/>
<path d="M122.125 22.622C122.125 22.622 119.885 21.78 118.647 20.257C119.527 23.498 122.125 22.622 122.125 22.622Z" fill="#706E19"/>
<path d="M122.714 23.682C122.714 23.682 119.916 23.515 118.003 22.234C120.109 25.561 122.714 23.682 122.714 23.682Z" fill="#706E19"/>
<path d="M122.551 23.689C122.551 23.689 123.815 21.186 123.674 18.889C125.487 22.386 122.551 23.689 122.551 23.689Z" fill="#706E19"/>
<path d="M123.424 25.174C123.424 25.174 119.98 24.966 117.625 23.391C120.217 27.486 123.424 25.174 123.424 25.174Z" fill="#706E19"/>
<path d="M123.221 25.183C123.221 25.183 124.778 22.103 124.604 19.277C126.833 23.578 123.221 25.183 123.221 25.183Z" fill="#706E19"/>
<path d="M124.447 27.074C124.447 27.074 120.658 26.846 118.069 25.113C120.919 29.616 124.447 27.074 124.447 27.074Z" fill="#706E19"/>
<path d="M124.225 27.084C124.225 27.084 125.936 23.696 125.745 20.585C128.199 25.318 124.225 27.084 124.225 27.084Z" fill="#706E19"/>
<path d="M125.093 28.363C125.093 28.363 121.309 28.661 118.503 27.302C121.948 31.369 125.093 28.363 125.093 28.363Z" fill="#706E19"/>
<path d="M124.545 28.657C124.545 28.657 126.871 25.656 127.277 22.568C128.785 27.68 124.545 28.657 124.545 28.657Z" fill="#706E19"/>
<path d="M125.584 30.25C125.584 30.25 121.244 30.589 118.029 29.031C121.979 33.695 125.584 30.25 125.584 30.25Z" fill="#706E19"/>
<path d="M125.316 30.5C125.316 30.5 128.254 27.289 129.004 23.796C130.248 29.779 125.316 30.5 125.316 30.5Z" fill="#706E19"/>
<path d="M126.246 32.521C126.246 32.521 121.368 32.902 117.753 31.149C122.194 36.393 126.246 32.521 126.246 32.521Z" fill="#706E19"/>
<path d="M125.944 32.8C125.944 32.8 129.247 29.19 130.091 25.264C131.492 31.99 125.944 32.8 125.944 32.8Z" fill="#706E19"/>
<path d="M127.28 35.156C127.28 35.156 122 35.569 118.087 33.673C122.892 39.349 127.28 35.156 127.28 35.156Z" fill="#706E19"/>
<path d="M126.872 35.413C126.872 35.413 130.525 31.579 131.526 27.349C132.891 34.661 126.872 35.413 126.872 35.413Z" fill="#706E19"/>
<path d="M128.01 37.359C128.01 37.359 122.052 37.826 117.639 35.687C123.061 42.089 128.01 37.359 128.01 37.359Z" fill="#706E19"/>
<path d="M127.598 37.593C127.598 37.593 131.955 33.508 133.348 28.805C134.425 37.125 127.598 37.593 127.598 37.593Z" fill="#706E19"/>
<path d="M128.991 40.388C128.991 40.388 122.722 40.879 118.078 38.628C123.783 45.363 128.991 40.388 128.991 40.388Z" fill="#706E19"/>
<path d="M128.558 40.635C128.558 40.635 133.144 36.335 134.61 31.385C135.744 40.14 128.558 40.635 128.558 40.635Z" fill="#706E19"/>
<path d="M130.002 42.689C130.002 42.689 123.308 43.213 118.346 40.81C124.441 48.006 130.002 42.689 130.002 42.689Z" fill="#706E19"/>
<path d="M129.229 42.853C129.229 42.853 134.723 38.993 137.016 33.981C136.904 43.407 129.229 42.853 129.229 42.853Z" fill="#706E19"/>
<path d="M131.237 46.158C131.237 46.158 124.056 46.721 118.737 44.143C125.271 51.859 131.237 46.158 131.237 46.158Z" fill="#706E19"/>
<path d="M130.408 46.334C130.408 46.334 136.298 42.193 138.758 36.816C138.637 46.928 130.408 46.334 130.408 46.334Z" fill="#706E19"/>
<path d="M122.125 22.622C122.125 22.622 121.762 20.256 120.522 18.732C123.515 20.26 122.125 22.622 122.125 22.622Z" fill="#706E19"/>
<path d="M171.184 78.407C171.184 78.407 170.968 93.18 180.33 88.517C189.688 83.855 172.633 76.759 171.184 78.407Z" fill="#A53D14"/>
<path d="M171.185 78.408C171.185 78.408 185.168 83.18 183.627 72.837C182.083 62.493 170.064 76.522 171.185 78.408Z" fill="#A53D14"/>
<path d="M171.184 78.409C171.184 78.409 180.044 66.584 169.731 64.855C159.419 63.125 169.046 78.891 171.184 78.409Z" fill="#A53D14"/>
<path d="M171.187 78.408C171.187 78.408 162.679 66.327 157.847 75.602C153.016 84.876 170.984 80.591 171.187 78.408Z" fill="#A53D14"/>
<path d="M171.186 78.407C171.186 78.407 157.069 82.765 164.396 90.227C171.723 97.689 173.201 79.274 171.186 78.407Z" fill="#A53D14"/>
<path d="M169.874 78.918C169.706 77.618 170.623 76.427 171.924 76.259C173.225 76.091 174.414 77.01 174.582 78.31C174.75 79.61 173.833 80.801 172.532 80.968C171.233 81.137 170.042 80.218 169.874 78.918Z" fill="white"/>
<path d="M178.601 82C182.063 84.121 182.237 87.995 177.214 88.644C183.141 86.993 178.601 82 178.601 82Z" fill="white"/>
<path d="M182.01 71.375C182.01 71.375 184.004 77.595 176.934 78.006C183.761 78.765 183.446 73.671 182.01 71.375Z" fill="white"/>
<path d="M127.261 57.195C127.261 57.195 115.823 66.549 113.657 56.318C111.49 46.089 127.652 55.036 127.261 57.195Z" fill="#A53D14"/>
<path d="M127.26 57.195C127.26 57.195 114.828 49.21 123.888 43.986C132.95 38.764 129.434 56.9 127.26 57.195Z" fill="#A53D14"/>
<path d="M127.26 57.196C127.26 57.196 131.013 42.905 138.779 49.907C146.545 56.908 128.211 59.17 127.26 57.196Z" fill="#A53D14"/>
<path d="M127.259 57.194C127.259 57.194 142.011 56.346 137.75 65.897C133.491 75.447 125.674 58.71 127.259 57.194Z" fill="#A53D14"/>
<path d="M127.26 57.194C127.26 57.194 132.624 70.96 122.225 69.861C111.825 68.761 125.33 56.155 127.26 57.194Z" fill="#A53D14"/>
<path d="M127.675 58.538C128.798 57.861 129.161 56.403 128.484 55.279C127.807 54.156 126.348 53.796 125.225 54.473C124.102 55.149 123.74 56.608 124.417 57.731C125.094 58.854 126.553 59.215 127.675 58.538Z" fill="white"/>
<path d="M119.836 53.62C116.022 52.227 112.88 54.5 115.494 58.837C113.103 53.168 119.836 53.62 119.836 53.62Z" fill="white"/>
<path d="M126.038 44.343C126.038 44.343 119.927 46.649 124.002 52.442C119.162 47.566 123.347 44.647 126.038 44.343Z" fill="white"/>
<path d="M153.107 61.98C153.107 61.98 165.072 44.228 150.021 42.472C134.972 40.715 150.044 62.833 153.107 61.98Z" fill="#D56B38"/>
<path d="M153.107 61.98C153.107 61.98 139.922 45.115 133.601 58.885C127.28 72.655 152.973 65.155 153.107 61.98Z" fill="#D56B38"/>
<path d="M153.108 61.979C153.108 61.979 132.994 69.307 144.136 79.573C155.279 89.84 156.084 63.087 153.108 61.979Z" fill="#D56B38"/>
<path d="M153.106 61.978C153.106 61.978 153.859 83.372 167.067 75.947C180.275 68.523 155.08 59.488 153.106 61.978Z" fill="#D56B38"/>
<path d="M153.105 61.98C153.105 61.98 173.685 67.875 170.705 53.018C167.726 38.162 151.348 59.333 153.105 61.98Z" fill="#D56B38"/>
<path d="M155.102 62.399C154.276 64.11 152.22 64.828 150.509 64.001C148.798 63.175 148.081 61.118 148.907 59.407C149.733 57.697 151.79 56.979 153.5 57.805C155.212 58.632 155.928 60.689 155.102 62.399Z" fill="white"/>
<path d="M146.955 51.748C144.435 46.434 147.294 41.596 153.9 44.786C145.401 42.094 146.955 51.748 146.955 51.748Z" fill="white"/>
<path d="M134.404 61.938C134.404 61.938 136.913 52.814 145.815 57.915C138.131 51.585 134.48 58.016 134.404 61.938Z" fill="white"/>
<path d="M76.6083 90.2014V88.3264H89.6992V90.2014H84.2106V105.781H82.0969V90.2014H76.6083ZM95.0749 88.3264V105.781H92.9613V88.3264H95.0749ZM113.154 88.3264V105.781H111.108L101.597 92.0764H101.426V105.781H99.3129V88.3264H101.358L110.904 102.065H111.074V88.3264H113.154ZM132.11 97.0536C132.11 98.8945 131.778 100.485 131.113 101.826C130.449 103.167 129.537 104.201 128.377 104.929C127.218 105.656 125.895 106.02 124.406 106.02C122.917 106.02 121.593 105.656 120.434 104.929C119.275 104.201 118.363 103.167 117.699 101.826C117.034 100.485 116.701 98.8945 116.701 97.0536C116.701 95.2127 117.034 93.6218 117.699 92.2809C118.363 90.94 119.275 89.9059 120.434 89.1786C121.593 88.4514 122.917 88.0877 124.406 88.0877C125.895 88.0877 127.218 88.4514 128.377 89.1786C129.537 89.9059 130.449 90.94 131.113 92.2809C131.778 93.6218 132.11 95.2127 132.11 97.0536ZM130.065 97.0536C130.065 95.5423 129.812 94.2667 129.306 93.2269C128.806 92.1871 128.127 91.4002 127.27 90.8661C126.417 90.332 125.463 90.065 124.406 90.065C123.349 90.065 122.392 90.332 121.534 90.8661C120.681 91.4002 120.002 92.1871 119.497 93.2269C118.997 94.2667 118.747 95.5423 118.747 97.0536C118.747 98.565 118.997 99.8406 119.497 100.88C120.002 101.92 120.681 102.707 121.534 103.241C122.392 103.775 123.349 104.042 124.406 104.042C125.463 104.042 126.417 103.775 127.27 103.241C128.127 102.707 128.806 101.92 129.306 100.88C129.812 99.8406 130.065 98.565 130.065 97.0536ZM103.608 135.02C102.461 135.02 101.472 134.809 100.642 134.389C99.8129 133.968 99.1737 133.392 98.7248 132.659C98.2759 131.926 98.0515 131.088 98.0515 130.145C98.0515 129.417 98.2049 128.772 98.5117 128.21C98.8242 127.642 99.2532 127.116 99.7987 126.633C100.35 126.145 100.983 125.656 101.699 125.167L104.222 123.292C104.716 122.968 105.111 122.622 105.407 122.252C105.708 121.883 105.858 121.4 105.858 120.804C105.858 120.36 105.662 119.931 105.27 119.517C104.884 119.102 104.375 118.895 103.745 118.895C103.301 118.895 102.909 119.008 102.569 119.235C102.233 119.457 101.969 119.741 101.776 120.088C101.588 120.429 101.495 120.781 101.495 121.145C101.495 121.554 101.605 121.968 101.827 122.389C102.054 122.804 102.341 123.23 102.688 123.667C103.04 124.099 103.404 124.542 103.779 124.997L111.79 134.781H109.37L102.756 126.804C102.142 126.065 101.586 125.395 101.086 124.792C100.586 124.19 100.188 123.596 99.8924 123.011C99.5969 122.426 99.4492 121.792 99.4492 121.11C99.4492 120.326 99.6225 119.639 99.9691 119.048C100.321 118.451 100.813 117.988 101.444 117.659C102.08 117.324 102.824 117.156 103.676 117.156C104.551 117.156 105.304 117.326 105.935 117.667C106.566 118.002 107.051 118.449 107.392 119.005C107.733 119.556 107.904 120.156 107.904 120.804C107.904 121.639 107.696 122.363 107.282 122.977C106.867 123.591 106.301 124.162 105.586 124.69L102.108 127.281C101.324 127.86 100.793 128.423 100.515 128.968C100.236 129.514 100.097 129.906 100.097 130.145C100.097 130.69 100.239 131.199 100.523 131.67C100.807 132.142 101.208 132.522 101.725 132.812C102.242 133.102 102.847 133.247 103.54 133.247C104.199 133.247 104.841 133.108 105.466 132.829C106.091 132.545 106.657 132.136 107.162 131.602C107.674 131.068 108.077 130.426 108.373 129.676C108.674 128.926 108.824 128.082 108.824 127.145H110.767C110.767 128.304 110.634 129.25 110.367 129.983C110.1 130.716 109.799 131.289 109.463 131.704C109.128 132.119 108.858 132.429 108.654 132.633C108.586 132.718 108.523 132.804 108.466 132.889C108.409 132.974 108.347 133.059 108.279 133.145C107.716 133.775 107.006 134.247 106.148 134.559C105.29 134.866 104.444 135.02 103.608 135.02ZM83.5043 163.781V146.326H94.0384V148.201H85.6179V154.099H93.4929V155.974H85.6179V161.906H94.1747V163.781H83.5043ZM97.848 163.781V146.326H99.9616V154.985H100.166L108.007 146.326H110.768L103.439 154.201L110.768 163.781H108.212L102.143 155.667L99.9616 158.122V163.781H97.848ZM114.22 163.781H112.004L118.413 146.326H120.595L127.004 163.781H124.788L119.572 149.088H119.436L114.22 163.781ZM115.038 156.963H123.97V158.838H115.038V156.963Z" fill="#292A2C"/>
<path d="M49.312 188.721C41.7 165.009 37.487 150.278 47.16 140.171" stroke="#994F13" stroke-miterlimit="10" stroke-linecap="round"/>
<path d="M41.4999 153.195C41.4999 153.195 37.5539 146.368 41.3569 131.636" stroke="#994F13" stroke-miterlimit="10" stroke-linecap="round"/>
<path d="M42.199 162.683C42.199 162.683 54.602 153.925 54.399 142.006" stroke="#994F13" stroke-miterlimit="10" stroke-linecap="round"/>
<path d="M39.735 145.004C39.735 145.004 35.721 142.933 35.688 136.089" stroke="#994F13" stroke-miterlimit="10" stroke-linecap="round"/>
<path d="M50.9459 153.286C50.9459 153.286 49.9369 150.763 51.5889 144.796" stroke="#994F13" stroke-miterlimit="10" stroke-linecap="round"/>
<path d="M53.5499 147.773C53.5499 147.773 57.7679 147.183 58.3389 141.307" stroke="#994F13" stroke-miterlimit="10" stroke-linecap="round"/>
<path d="M41.6219 157.752C41.6219 157.752 35.524 156.203 33.627 150.101" stroke="#994F13" stroke-miterlimit="10" stroke-linecap="round"/>
<path d="M40.073 138.154C40.073 138.154 46.049 136.649 46.066 131.906" stroke="#994F13" stroke-miterlimit="10" stroke-linecap="round"/>
<path d="M41.7469 159.266C41.7469 159.266 45.883 157.091 46.181 148.514" stroke="#994F13" stroke-miterlimit="10" stroke-linecap="round"/>
<path d="M59.817 138.119C61.225 138.62 61.96 140.168 61.458 141.574C60.959 142.979 59.412 143.717 58.004 143.215C56.598 142.715 55.863 141.167 56.364 139.761C56.864 138.354 58.41 137.618 59.817 138.119Z" fill="#DA7F29"/>
<path d="M58.7921 142.557C57.7131 142.174 57.1511 140.99 57.5341 139.914C57.7091 139.428 58.0501 139.055 58.4641 138.817C57.7831 138.962 57.1901 139.44 56.9391 140.144C56.5571 141.22 57.1191 142.404 58.1951 142.786C58.7861 142.997 59.4051 142.914 59.9111 142.626C59.5481 142.703 59.1651 142.691 58.7921 142.557Z" fill="white"/>
<path d="M47.4629 128.877C48.8699 129.379 49.604 130.927 49.102 132.333C48.603 133.741 47.0569 134.474 45.6489 133.974C44.2409 133.474 43.506 131.926 44.009 130.52C44.508 129.112 46.0539 128.377 47.4629 128.877Z" fill="#DA7F29"/>
<path d="M46.4359 133.316C45.3589 132.934 44.7949 131.749 45.1809 130.673C45.3529 130.187 45.6929 129.813 46.1089 129.576C45.4269 129.72 44.8359 130.198 44.5839 130.903C44.2009 131.978 44.7629 133.162 45.8399 133.546C46.4309 133.757 47.0499 133.674 47.5549 133.386C47.1939 133.461 46.8079 133.449 46.4359 133.316Z" fill="white"/>
<path d="M41.352 129.917C42.759 130.418 43.495 131.964 42.994 133.372C42.493 134.779 40.945 135.513 39.538 135.012C38.133 134.511 37.397 132.965 37.898 131.559C38.397 130.15 39.944 129.416 41.352 129.917Z" fill="#DA7F29"/>
<path d="M40.3259 134.355C39.2479 133.971 38.6859 132.788 39.0699 131.71C39.2429 131.225 39.5849 130.853 39.9999 130.616C39.3169 130.759 38.7249 131.237 38.4749 131.941C38.0909 133.016 38.6539 134.201 39.7299 134.583C40.3219 134.794 40.9399 134.711 41.4459 134.423C41.0839 134.499 40.6989 134.487 40.3259 134.355Z" fill="white"/>
<path d="M36.434 133.989C37.841 134.488 38.575 136.036 38.074 137.444C37.575 138.851 36.029 139.585 34.62 139.086C33.214 138.584 32.479 137.038 32.98 135.631C33.481 134.224 35.027 133.487 36.434 133.989Z" fill="#DA7F29"/>
<path d="M35.4081 138.428C34.3311 138.044 33.769 136.86 34.152 135.783C34.327 135.298 34.6641 134.924 35.0821 134.686C34.4001 134.831 33.8071 135.309 33.5561 136.012C33.1731 137.088 33.735 138.272 34.812 138.655C35.404 138.865 36.022 138.782 36.527 138.495C36.165 138.572 35.7801 138.559 35.4081 138.428Z" fill="white"/>
<path d="M34.839 147.566C36.247 148.067 36.981 149.614 36.481 151.022C35.98 152.426 34.433 153.162 33.027 152.662C31.619 152.163 30.884 150.614 31.385 149.208C31.886 147.801 33.433 147.066 34.839 147.566Z" fill="#DA7F29"/>
<path d="M33.8131 152.005C32.7361 151.623 32.1751 150.438 32.5581 149.362C32.7311 148.875 33.0711 148.502 33.4871 148.265C32.8051 148.41 32.2141 148.886 31.9621 149.59C31.5791 150.667 32.1411 151.849 33.2171 152.233C33.8081 152.443 34.4281 152.361 34.9311 152.073C34.5711 152.15 34.1861 152.138 33.8131 152.005Z" fill="white"/>
<path d="M47.6291 138.71C49.0361 139.211 49.7701 140.759 49.2701 142.165C48.7691 143.571 47.2231 144.308 45.8151 143.806C44.4091 143.306 43.6731 141.759 44.1721 140.353C44.6741 138.944 46.2201 138.209 47.6291 138.71Z" fill="#DA7F29"/>
<path d="M46.602 143.148C45.527 142.765 44.962 141.581 45.346 140.506C45.518 140.019 45.859 139.646 46.275 139.409C45.593 139.552 45.001 140.03 44.751 140.735C44.368 141.811 44.929 142.994 46.007 143.378C46.599 143.587 47.216 143.506 47.722 143.217C47.361 143.294 46.975 143.281 46.602 143.148Z" fill="white"/>
<path d="M46.339 147.098C47.747 147.599 48.481 149.145 47.98 150.554C47.48 151.959 45.933 152.694 44.527 152.193C43.12 151.692 42.384 150.147 42.885 148.738C43.385 147.332 44.932 146.596 46.339 147.098Z" fill="#DA7F29"/>
<path d="M45.3141 151.537C44.2361 151.154 43.6741 149.971 44.0561 148.892C44.2291 148.407 44.5721 148.033 44.9861 147.796C44.3051 147.939 43.7111 148.417 43.4611 149.12C43.0791 150.197 43.6411 151.381 44.7171 151.764C45.3101 151.975 45.9271 151.894 46.4331 151.605C46.0711 151.681 45.6861 151.669 45.3141 151.537Z" fill="white"/>
<path d="M52.513 142.581C53.919 143.082 54.655 144.628 54.154 146.036C53.652 147.442 52.108 148.179 50.699 147.678C49.293 147.176 48.558 145.629 49.058 144.224C49.56 142.816 51.105 142.08 52.513 142.581Z" fill="#DA7F29"/>
<path d="M51.487 147.02C50.411 146.636 49.847 145.453 50.231 144.377C50.403 143.891 50.744 143.518 51.159 143.28C50.478 143.423 49.885 143.901 49.635 144.604C49.252 145.681 49.813 146.865 50.891 147.249C51.482 147.459 52.1001 147.375 52.6041 147.088C52.2441 147.165 51.859 147.153 51.487 147.02Z" fill="white"/>
<path d="M54.9201 140.578C55.6761 140.847 56.0701 141.678 55.8021 142.433C55.5321 143.188 54.7041 143.583 53.9481 143.314C53.1921 143.045 52.7991 142.215 53.0661 141.46C53.3351 140.703 54.1651 140.308 54.9201 140.578Z" fill="#DA7F29"/>
<path d="M54.37 142.961C53.792 142.755 53.491 142.119 53.698 141.54C53.789 141.28 53.971 141.08 54.195 140.953C53.83 141.029 53.51 141.287 53.377 141.665C53.17 142.244 53.472 142.878 54.05 143.084C54.368 143.197 54.699 143.153 54.971 142.997C54.777 143.038 54.571 143.033 54.37 142.961Z" fill="white"/>
<path d="M46.2191 153.201C47.1491 153.532 47.6361 154.555 47.3031 155.486C46.9741 156.416 45.9501 156.901 45.0221 156.57C44.0921 156.24 43.6051 155.218 43.9361 154.286C44.2671 153.356 45.2901 152.871 46.2191 153.201Z" fill="#DA7F29"/>
<path d="M45.5412 156.135C44.8292 155.882 44.4582 155.099 44.7102 154.388C44.8242 154.067 45.0491 153.821 45.3241 153.663C44.8731 153.757 44.4811 154.076 44.3161 154.539C44.0641 155.25 44.4342 156.035 45.1452 156.287C45.5382 156.426 45.9452 156.371 46.2802 156.181C46.0422 156.233 45.7882 156.224 45.5412 156.135Z" fill="white"/>
<path d="M36.9801 140.898C37.9131 141.229 38.3981 142.252 38.0671 143.182C37.7351 144.113 36.7121 144.597 35.7831 144.266C34.8521 143.936 34.3651 142.912 34.6991 141.983C35.0291 141.053 36.0501 140.568 36.9801 140.898Z" fill="#DA7F29"/>
<path d="M36.3021 143.833C35.5911 143.58 35.2201 142.797 35.4731 142.085C35.5871 141.763 35.8131 141.519 36.0871 141.36C35.6351 141.456 35.2421 141.77 35.0771 142.236C34.8251 142.947 35.1941 143.732 35.9081 143.983C36.3001 144.123 36.7081 144.067 37.0421 143.877C36.8031 143.93 36.5511 143.922 36.3021 143.833Z" fill="white"/>
<path d="M40.176 143.607C41.108 143.937 41.594 144.959 41.263 145.892C40.932 146.82 39.91 147.306 38.979 146.974C38.049 146.643 37.562 145.621 37.893 144.692C38.226 143.76 39.247 143.273 40.176 143.607Z" fill="#DA7F29"/>
<path d="M39.498 146.541C38.786 146.287 38.416 145.504 38.669 144.792C38.782 144.471 39.008 144.225 39.283 144.068C38.832 144.162 38.439 144.479 38.273 144.944C38.02 145.656 38.392 146.438 39.103 146.691C39.496 146.831 39.904 146.776 40.239 146.586C39.999 146.637 39.747 146.628 39.498 146.541Z" fill="white"/>
<path d="M46.459 157.862C47.388 158.193 47.876 159.215 47.544 160.146C47.213 161.077 46.192 161.563 45.26 161.231C44.331 160.901 43.843 159.878 44.175 158.948C44.507 158.016 45.528 157.53 46.459 157.862Z" fill="#DA7F29"/>
<path d="M45.781 160.797C45.07 160.544 44.697 159.761 44.951 159.048C45.064 158.728 45.29 158.481 45.564 158.325C45.114 158.418 44.72 158.736 44.557 159.199C44.303 159.911 44.673 160.695 45.385 160.948C45.778 161.088 46.185 161.031 46.52 160.841C46.281 160.893 46.028 160.885 45.781 160.797Z" fill="white"/>
<path d="M53.604 148.611C54.535 148.942 55.02 149.964 54.688 150.896C54.358 151.826 53.335 152.311 52.404 151.98C51.476 151.649 50.989 150.626 51.321 149.696C51.652 148.766 52.673 148.281 53.604 148.611Z" fill="#DA7F29"/>
<path d="M52.9241 151.544C52.2121 151.293 51.8431 150.509 52.0961 149.797C52.2081 149.476 52.4331 149.23 52.7101 149.073C52.2581 149.167 51.8651 149.484 51.7011 149.949C51.4471 150.659 51.8181 151.443 52.5311 151.697C52.9211 151.836 53.3311 151.781 53.6641 151.59C53.4251 151.641 53.1721 151.633 52.9241 151.544Z" fill="white"/>
<path d="M44.414 134.85C45.345 135.18 45.833 136.202 45.499 137.134C45.169 138.064 44.146 138.548 43.216 138.219C42.286 137.887 41.8 136.866 42.13 135.936C42.461 135.005 43.484 134.52 44.414 134.85Z" fill="#DA7F29"/>
<path d="M43.734 137.784C43.023 137.531 42.652 136.748 42.906 136.037C43.019 135.714 43.245 135.47 43.52 135.312C43.069 135.406 42.676 135.723 42.51 136.186C42.257 136.898 42.628 137.681 43.342 137.935C43.732 138.075 44.141 138.019 44.475 137.829C44.237 137.881 43.983 137.872 43.734 137.784Z" fill="white"/>
<path d="M38.571 152.593C39.741 153.009 40.351 154.293 39.935 155.465C39.518 156.633 38.232 157.244 37.064 156.827C35.895 156.411 35.286 155.126 35.7 153.957C36.116 152.788 37.402 152.178 38.571 152.593Z" fill="#DA7F29"/>
<path d="M37.7169 156.283C36.8229 155.964 36.3559 154.98 36.6739 154.085C36.8179 153.683 37.0989 153.373 37.4469 153.175C36.8809 153.294 36.3849 153.693 36.1779 154.276C35.8609 155.169 36.3259 156.155 37.2199 156.473C37.7109 156.648 38.2259 156.578 38.6469 156.34C38.3479 156.403 38.0279 156.393 37.7169 156.283Z" fill="white"/>
<path d="M38.812 157.482C32.381 157.917 30.701 150.791 25.937 150.305C33.235 147.174 38.368 155.751 38.368 155.751L38.812 157.482Z" fill="#898A32"/>
<path d="M45.99 182.378C44.494 179.931 43.855 176.453 43.112 172.417C41.5 163.644 39.492 152.728 27.156 145.411C26.944 145.285 26.867 145.005 26.997 144.789C27.125 144.572 27.404 144.502 27.62 144.629C40.312 152.157 42.361 163.299 44.007 172.252C45.092 178.153 45.949 182.816 49.592 184.486C49.819 184.59 49.92 184.86 49.816 185.09C49.711 185.319 49.442 185.419 49.213 185.313C47.807 184.669 46.78 183.665 45.99 182.378Z" fill="#898A32"/>
<path d="M44.9309 178.664C37.4869 179.165 35.5399 170.916 30.0239 170.353C38.4739 166.729 44.4179 176.659 44.4179 176.659L44.9309 178.664Z" fill="#898A32"/>
<path d="M42.586 167.119C36.155 167.552 34.475 160.427 29.71 159.94C37.009 156.811 42.1429 165.388 42.1429 165.388L42.586 167.119Z" fill="#898A32"/>
<path d="M43.456 171.78C40.224 166.939 48.701 161.779 46.65 157.662C51.702 166.036 43.884 172.045 43.851 173.909L43.456 171.78Z" fill="#898A32"/>
<path d="M40.238 159.709C37.005 154.87 45.481 149.711 43.432 145.592C48.486 153.967 40.666 159.975 40.632 161.839L40.238 159.709Z" fill="#898A32"/>
<path d="M35.403 151.75C30.269 149.007 35.308 140.46 31.559 137.795C39.965 142.796 35.906 151.78 36.756 153.441L35.403 151.75Z" fill="#898A32"/>
<path d="M28.76 146.072C22.991 146.854 22.075 136.972 17.475 137.008C27.218 136.142 29.186 145.804 30.846 146.654L28.76 146.072Z" fill="#898A32"/>
<path d="M28.463 161.252C22.993 164.662 18.157 159.167 13.725 160.979C18.69 154.782 27.255 159.934 27.255 159.934L28.463 161.252Z" fill="#ADAD40"/>
<path d="M46.514 179.838C44.041 178.383 41.84 175.616 39.287 172.404C33.733 165.423 26.823 156.737 12.496 156.087C12.25 156.076 12.053 155.865 12.063 155.612C12.073 155.362 12.289 155.169 12.538 155.179C27.277 155.848 34.33 164.713 39.998 171.838C43.731 176.534 46.683 180.245 50.685 180.005C50.931 179.989 51.15 180.18 51.164 180.431C51.18 180.683 50.988 180.897 50.738 180.912C49.195 181.006 47.817 180.604 46.514 179.838Z" fill="#ADAD40"/>
<path d="M43.831 177.06C37.5 181.006 31.899 174.643 26.767 176.745C32.519 169.57 42.435 175.534 42.435 175.534L43.831 177.06Z" fill="#ADAD40"/>
<path d="M36.33 167.978C30.86 171.388 26.0241 165.891 21.5911 167.704C26.5581 161.509 35.1241 166.659 35.1241 166.659L36.33 167.978Z" fill="#ADAD40"/>
<path d="M39.29 171.681C34.16 168.931 39.21 160.389 35.464 157.72C43.863 162.732 39.793 171.713 40.642 173.372L39.29 171.681Z" fill="#ADAD40"/>
<path d="M30.77 162.546C25.638 159.798 30.69 151.256 26.943 148.588C35.342 153.599 31.272 162.579 32.12 164.24L30.77 162.546Z" fill="#ADAD40"/>
<path d="M22.756 157.799C16.938 157.795 17.359 147.881 12.796 147.296C22.567 147.751 23.215 157.589 24.747 158.653L22.756 157.799Z" fill="#ADAD40"/>
<path d="M14.224 155.917C9.502 159.322 4.043 151.034 0 153.23C8.188 147.881 14.474 155.479 16.338 155.447L14.224 155.917Z" fill="#ADAD40"/>
<path d="M59.569 188.074C67.819 189.94 87.338 209.786 94.575 211.69" stroke="#ADAD40" stroke-miterlimit="10" stroke-linecap="round"/>
<path d="M91.874 210.604C91.874 210.604 94.6319 210.018 96.8239 210.749C93.8959 208.089 91.874 210.604 91.874 210.604Z" fill="#ADAD40"/>
<path d="M90.62 209.924C90.62 209.924 93.503 208.319 96.212 208.379C92.015 206.413 90.62 209.924 90.62 209.924Z" fill="#ADAD40"/>
<path d="M90.78 209.813C90.78 209.813 91.106 213.096 92.699 215.286C88.692 212.965 90.78 209.813 90.78 209.813Z" fill="#ADAD40"/>
<path d="M88.9709 208.893C88.9709 208.893 92.521 206.916 95.853 206.991C90.69 204.569 88.9709 208.893 88.9709 208.893Z" fill="#ADAD40"/>
<path d="M89.165 208.755C89.165 208.755 89.572 212.796 91.532 215.489C86.597 212.635 89.165 208.755 89.165 208.755Z" fill="#ADAD40"/>
<path d="M86.751 207.657C86.751 207.657 90.658 205.483 94.325 205.565C88.646 202.899 86.751 207.657 86.751 207.657Z" fill="#ADAD40"/>
<path d="M86.9669 207.505C86.9669 207.505 87.4129 211.95 89.5709 214.919C84.1399 211.772 86.9669 207.505 86.9669 207.505Z" fill="#ADAD40"/>
<path d="M85.296 206.786C85.296 206.786 88.862 204.093 92.509 203.667C86.513 201.811 85.296 206.786 85.296 206.786Z" fill="#ADAD40"/>
<path d="M85.6529 206.147C85.6529 206.147 85.2429 210.598 86.7999 213.918C82.0629 209.799 85.6529 206.147 85.6529 206.147Z" fill="#ADAD40"/>
<path d="M83.6129 205.225C83.6129 205.225 87.7039 202.139 91.8809 201.651C85.0099 199.524 83.6129 205.225 83.6129 205.225Z" fill="#ADAD40"/>
<path d="M83.723 204.805C83.723 204.805 82.839 209.852 84.306 213.791C79.284 208.645 83.723 204.805 83.723 204.805Z" fill="#ADAD40"/>
<path d="M81.52 203.389C81.52 203.389 86.117 199.924 90.814 199.373C83.091 196.983 81.52 203.389 81.52 203.389Z" fill="#ADAD40"/>
<path d="M81.6429 202.919C81.6429 202.919 80.646 208.595 82.298 213.024C76.651 207.237 81.6429 202.919 81.6429 202.919Z" fill="#ADAD40"/>
<path d="M78.8259 201.428C78.8259 201.428 83.8039 197.674 88.8849 197.08C80.5229 194.491 78.8259 201.428 78.8259 201.428Z" fill="#ADAD40"/>
<path d="M79.069 200.917C79.069 200.917 77.87 207.034 79.553 211.866C73.572 205.473 79.069 200.917 79.069 200.917Z" fill="#ADAD40"/>
<path d="M76.7059 199.706C76.7059 199.706 82.3199 195.472 88.0539 194.801C78.6219 191.88 76.7059 199.706 76.7059 199.706Z" fill="#ADAD40"/>
<path d="M76.965 199.212C76.965 199.212 75.229 206.027 76.823 211.575C70.487 204.001 76.965 199.212 76.965 199.212Z" fill="#ADAD40"/>
<path d="M73.814 197.323C73.814 197.323 79.724 192.866 85.758 192.159C75.83 189.086 73.814 197.323 73.814 197.323Z" fill="#ADAD40"/>
<path d="M74.0889 196.801C74.0889 196.801 72.2599 203.975 73.9399 209.813C67.2689 201.842 74.0889 196.801 74.0889 196.801Z" fill="#ADAD40"/>
<path d="M71.353 195.678C71.353 195.678 77.663 190.918 84.109 190.163C73.505 186.88 71.353 195.678 71.353 195.678Z" fill="#ADAD40"/>
<path d="M72.0179 195.026C72.0179 195.026 69.0099 202.336 69.9069 208.762C64.0529 199.333 72.0179 195.026 72.0179 195.026Z" fill="#ADAD40"/>
<path d="M67.933 193.017C67.933 193.017 74.703 187.913 81.613 187.102C70.244 183.583 67.933 193.017 67.933 193.017Z" fill="#ADAD40"/>
<path d="M68.643 192.318C68.643 192.318 65.421 200.155 66.385 207.049C60.101 196.938 68.643 192.318 68.643 192.318Z" fill="#ADAD40"/>
<path d="M91.874 210.604C91.874 210.604 93.7319 212.719 95.9279 213.448C91.9929 213.829 91.874 210.604 91.874 210.604Z" fill="#ADAD40"/>
<path d="M92.363 196.344C92.363 196.344 85.53 189.639 71.407 192.652" stroke="#42442E" stroke-miterlimit="10"/>
<path d="M73.83 192.323C73.83 192.323 98.403 189.702 112.262 196.005" stroke="#42442E" stroke-miterlimit="10"/>
<path d="M114.993 182.558C114.993 182.558 104.918 195.979 62.8569 187.156" stroke="#42442E" stroke-miterlimit="10"/>
<path d="M45.493 185.242C45.493 185.242 65.237 178.918 54.847 168.556C44.454 158.195 42.651 184.054 45.493 185.242Z" fill="#A53D14"/>
<path d="M45.493 185.242C45.493 185.242 45.58 164.508 32.516 171.186C19.452 177.87 43.483 187.576 45.493 185.242Z" fill="#A53D14"/>
<path d="M45.494 185.242C45.494 185.242 25.8 178.75 28.116 193.241C30.432 207.729 47.09 187.87 45.494 185.242Z" fill="#A53D14"/>
<path d="M45.491 185.239C45.491 185.239 33.231 201.961 47.728 204.236C62.225 206.51 48.486 184.531 45.491 185.239Z" fill="#A53D14"/>
<path d="M45.489 185.24C45.489 185.24 57.603 202.067 64.249 188.982C70.896 175.898 45.741 182.173 45.489 185.24Z" fill="#A53D14"/>
<path d="M46.756 186.756C45.104 187.561 43.107 186.875 42.301 185.219C41.494 183.565 42.186 181.571 43.841 180.765C45.495 179.96 47.488 180.647 48.293 182.302C49.1 183.958 48.411 185.951 46.756 186.756Z" fill="white"/>
<path d="M46.95 173.772C48.222 168.217 53.2969 166.252 56.4059 172.644C51.5599 165.499 46.95 173.772 46.95 173.772Z" fill="white"/>
<path d="M31.2939 173.992C31.2939 173.992 38.674 168.556 42.383 177.775C40.337 168.356 33.7049 171.056 31.2939 173.992Z" fill="white"/>
<path d="M67.1401 192.473C67.1401 192.473 80.0271 181.696 69.0631 177.093C58.1001 172.491 64.6461 192.45 67.1401 192.473Z" fill="#DA7F29"/>
<path d="M67.1411 192.473C67.1411 192.473 60.8731 176.885 53.1081 185.89C45.3421 194.895 66.3481 194.838 67.1411 192.473Z" fill="#DA7F29"/>
<path d="M67.142 192.472C67.142 192.472 50.379 193.615 56.543 203.783C62.708 213.952 69.145 193.957 67.142 192.472Z" fill="#DA7F29"/>
<path d="M67.14 192.471C67.14 192.471 63.047 208.764 74.623 206.045C86.199 203.325 69.17 191.024 67.14 192.471Z" fill="#DA7F29"/>
<path d="M67.1401 192.472C67.1401 192.472 81.3721 201.399 82.3611 189.55C83.3511 177.701 66.3911 190.094 67.1401 192.472Z" fill="#DA7F29"/>
<path d="M68.554 193.223C67.558 194.332 65.852 194.427 64.743 193.432C63.631 192.435 63.539 190.729 64.535 189.619C65.532 188.509 67.237 188.415 68.347 189.41C69.455 190.409 69.549 192.114 68.554 193.223Z" fill="white"/>
<path d="M64.732 183.419C63.991 178.864 67.199 175.839 71.485 179.684C65.663 175.802 64.732 183.419 64.732 183.419Z" fill="white"/>
<path d="M53.0491 188.368C53.0491 188.368 56.9271 182.034 62.5291 187.82C58.1141 181.374 53.9601 185.427 53.0491 188.368Z" fill="white"/>
<path d="M89.897 190.148C89.897 190.148 97.621 191.832 102.789 182.696" stroke="#42442E" stroke-miterlimit="10"/>
<path d="M109.919 185.422C109.919 185.422 110.898 191.472 115.399 186.937C119.905 182.401 116.888 177.577 116.888 177.577C116.888 177.577 111.054 176.704 108.102 180.643C105.146 184.582 109.919 185.422 109.919 185.422Z" fill="#42442E"/>
<path d="M110.504 185.08C110.504 185.08 114.95 184.286 116.063 179.137C115.417 185.763 110.504 185.08 110.504 185.08Z" fill="white"/>
<path d="M107.417 193.503C107.417 193.503 101.45 197.024 108.079 199.898C114.711 202.775 118.547 197.611 118.547 197.611C118.547 197.611 117.065 191.109 111.7 189.622C106.335 188.132 107.417 193.503 107.417 193.503Z" fill="#42442E"/>
<path d="M108.019 193.977C108.019 193.977 110.685 198.332 116.564 197.383C109.323 199.43 108.019 193.977 108.019 193.977Z" fill="white"/>
<path d="M99.973 186.122C99.973 186.122 101.769 189.116 103.191 185.765C104.618 182.415 102.001 180.5 102.001 180.5C102.001 180.5 98.733 181.269 98.002 183.976C97.27 186.685 99.973 186.122 99.973 186.122Z" fill="#42442E"/>
<path d="M100.209 185.816C100.209 185.816 102.393 184.459 101.894 181.5C102.952 185.141 100.209 185.816 100.209 185.816Z" fill="white"/>
<path d="M90.5 194.913C90.5 194.913 91.231 191.499 93.663 194.208C96.097 196.917 94.241 199.575 94.241 199.575C94.241 199.575 90.9 199.905 89.333 197.581C87.761 195.255 90.5 194.913 90.5 194.913Z" fill="#42442E"/>
<path d="M90.825 195.126C90.825 195.126 93.33 195.702 93.817 198.665C93.639 194.876 90.825 195.126 90.825 195.126Z" fill="white"/>
<path d="M169.87 147.185V178.098C169.87 185.299 164.031 191.137 156.831 191.137H129.341" stroke="#506D25" stroke-width="2" stroke-miterlimit="10" stroke-linecap="round"/>
<path d="M39.403 115.852V73.555" stroke="#506D25" stroke-width="2" stroke-miterlimit="10" stroke-linecap="round"/>
</svg>
